# Blender 5.0.1
# www.blender.org
mtllib axes.mtl
o Cylinder
v -0.000000 -283.002411 -3.751986
v -0.000000 283.002411 -3.751986
v 0.731976 -283.002411 -3.679893
v 0.731976 283.002411 -3.679893
v 1.435823 -283.002411 -3.466383
v 1.435823 283.002411 -3.466383
v 2.084491 -283.002411 -3.119662
v 2.084491 283.002411 -3.119662
v 2.653054 -283.002411 -2.653054
v 2.653054 283.002411 -2.653054
v 3.119662 -283.002411 -2.084492
v 3.119662 283.002411 -2.084492
v 3.466383 -283.002411 -1.435823
v 3.466383 283.002411 -1.435823
v 3.679892 -283.002411 -0.731976
v 3.679892 283.002411 -0.731976
v 3.751986 -283.002411 0.000000
v 3.751986 283.002411 0.000000
v 3.679892 -283.002411 0.731976
v 3.679892 283.002411 0.731976
v 3.466383 -283.002411 1.435823
v 3.466383 283.002411 1.435823
v 3.119662 -283.002411 2.084492
v 3.119662 283.002411 2.084492
v 2.653054 -283.002411 2.653054
v 2.653054 283.002411 2.653054
v 2.084491 -283.002411 3.119662
v 2.084491 283.002411 3.119662
v 1.435823 -283.002411 3.466383
v 1.435823 283.002411 3.466383
v 0.731976 -283.002411 3.679893
v 0.731976 283.002411 3.679893
v -0.000000 -283.002411 3.751986
v -0.000000 283.002411 3.751986
v -0.731976 -283.002411 3.679893
v -0.731976 283.002411 3.679893
v -1.435823 -283.002411 3.466383
v -1.435823 283.002411 3.466383
v -2.084492 -283.002411 3.119662
v -2.084492 283.002411 3.119662
v -2.653055 -283.002411 2.653054
v -2.653055 283.002411 2.653054
v -3.119662 -283.002411 2.084492
v -3.119662 283.002411 2.084492
v -3.466383 -283.002411 1.435823
v -3.466383 283.002411 1.435823
v -3.679893 -283.002411 0.731976
v -3.679893 283.002411 0.731976
v -3.751986 -283.002411 0.000000
v -3.751986 283.002411 0.000000
v -3.679893 -283.002411 -0.731976
v -3.679893 283.002411 -0.731976
v -3.466383 -283.002411 -1.435823
v -3.466383 283.002411 -1.435823
v -3.119662 -283.002411 -2.084492
v -3.119662 283.002411 -2.084492
v -2.653055 -283.002411 -2.653054
v -2.653055 283.002411 -2.653054
v -2.084492 -283.002411 -3.119662
v -2.084492 283.002411 -3.119662
v -1.435823 -283.002411 -3.466383
v -1.435823 283.002411 -3.466383
v -0.731976 -283.002411 -3.679893
v -0.731976 283.002411 -3.679893
v -0.000000 3.751965 -283.002380
v -0.000000 3.752007 283.002380
v 0.731976 3.679871 -283.002380
v 0.731976 3.679914 283.002380
v 1.435823 3.466362 -283.002380
v 1.435823 3.466404 283.002380
v 2.084491 3.119641 -283.002380
v 2.084491 3.119684 283.002380
v 2.653054 2.653033 -283.002380
v 2.653054 2.653076 283.002380
v 3.119662 2.084470 -283.002380
v 3.119662 2.084513 283.002380
v 3.466383 1.435802 -283.002380
v 3.466383 1.435844 283.002380
v 3.679892 0.731955 -283.002380
v 3.679892 0.731998 283.002380
v 3.751986 -0.000021 -283.002380
v 3.751986 0.000021 283.002380
v 3.679892 -0.731998 -283.002380
v 3.679892 -0.731955 283.002380
v 3.466383 -1.435844 -283.002380
v 3.466383 -1.435802 283.002380
v 3.119662 -2.084513 -283.002380
v 3.119662 -2.084470 283.002380
v 2.653054 -2.653076 -283.002380
v 2.653054 -2.653033 283.002380
v 2.084491 -3.119684 -283.002380
v 2.084491 -3.119641 283.002380
v 1.435823 -3.466404 -283.002380
v 1.435823 -3.466362 283.002380
v 0.731976 -3.679914 -283.002380
v 0.731976 -3.679871 283.002380
v -0.000000 -3.752007 -283.002380
v -0.000000 -3.751965 283.002380
v -0.731976 -3.679914 -283.002380
v -0.731976 -3.679871 283.002380
v -1.435823 -3.466404 -283.002380
v -1.435823 -3.466362 283.002380
v -2.084492 -3.119684 -283.002380
v -2.084492 -3.119641 283.002380
v -2.653055 -2.653076 -283.002380
v -2.653055 -2.653033 283.002380
v -3.119662 -2.084513 -283.002380
v -3.119662 -2.084470 283.002380
v -3.466383 -1.435844 -283.002380
v -3.466383 -1.435802 283.002380
v -3.679893 -0.731998 -283.002380
v -3.679893 -0.731955 283.002380
v -3.751986 -0.000021 -283.002380
v -3.751986 0.000021 283.002380
v -3.679893 0.731955 -283.002380
v -3.679893 0.731998 283.002380
v -3.466383 1.435802 -283.002380
v -3.466383 1.435844 283.002380
v -3.119662 2.084470 -283.002380
v -3.119662 2.084513 283.002380
v -2.653055 2.653033 -283.002380
v -2.653055 2.653076 283.002380
v -2.084492 3.119641 -283.002380
v -2.084492 3.119684 283.002380
v -1.435823 3.466362 -283.002380
v -1.435823 3.466404 283.002380
v -0.731976 3.679871 -283.002380
v -0.731976 3.679914 283.002380
v 283.002380 3.751965 -0.000021
v -283.002380 3.752007 0.000021
v 283.002380 3.679871 0.731955
v -283.002380 3.679914 0.731998
v 283.002380 3.466362 1.435802
v -283.002380 3.466404 1.435844
v 283.002380 3.119641 2.084470
v -283.002380 3.119684 2.084513
v 283.002380 2.653033 2.653033
v -283.002380 2.653076 2.653076
v 283.002380 2.084470 3.119641
v -283.002380 2.084513 3.119684
v 283.002380 1.435802 3.466362
v -283.002380 1.435844 3.466404
v 283.002380 0.731955 3.679871
v -283.002380 0.731998 3.679914
v 283.002380 -0.000021 3.751965
v -283.002380 0.000021 3.752007
v 283.002380 -0.731998 3.679871
v -283.002380 -0.731955 3.679914
v 283.002380 -1.435844 3.466362
v -283.002380 -1.435802 3.466404
v 283.002380 -2.084513 3.119641
v -283.002380 -2.084470 3.119684
v 283.002380 -2.653076 2.653033
v -283.002380 -2.653033 2.653076
v 283.002380 -3.119684 2.084470
v -283.002380 -3.119641 2.084513
v 283.002380 -3.466404 1.435802
v -283.002380 -3.466362 1.435844
v 283.002380 -3.679914 0.731955
v -283.002380 -3.679871 0.731998
v 283.002380 -3.752007 -0.000021
v -283.002380 -3.751965 0.000021
v 283.002380 -3.679914 -0.731998
v -283.002380 -3.679871 -0.731955
v 283.002380 -3.466404 -1.435844
v -283.002380 -3.466362 -1.435802
v 283.002380 -3.119684 -2.084513
v -283.002380 -3.119641 -2.084470
v 283.002380 -2.653076 -2.653076
v -283.002380 -2.653033 -2.653033
v 283.002380 -2.084513 -3.119684
v -283.002380 -2.084470 -3.119641
v 283.002380 -1.435844 -3.466404
v -283.002380 -1.435802 -3.466362
v 283.002380 -0.731998 -3.679914
v -283.002380 -0.731955 -3.679871
v 283.002380 -0.000021 -3.752007
v -283.002380 0.000021 -3.751965
v 283.002380 0.731955 -3.679914
v -283.002380 0.731998 -3.679871
v 283.002380 1.435802 -3.466404
v -283.002380 1.435844 -3.466362
v 283.002380 2.084470 -3.119684
v -283.002380 2.084513 -3.119641
v 283.002380 2.653033 -2.653076
v -283.002380 2.653076 -2.653033
v 283.002380 3.119641 -2.084513
v -283.002380 3.119684 -2.084470
v 283.002380 3.466362 -1.435844
v -283.002380 3.466404 -1.435802
v 283.002380 3.679871 -0.731998
v -283.002380 3.679914 -0.731955
vn 0.0980 -0.0000 -0.9952
vn 0.2903 -0.0000 -0.9569
vn 0.4714 -0.0000 -0.8819
vn 0.6344 -0.0000 -0.7730
vn 0.7730 -0.0000 -0.6344
vn 0.8819 -0.0000 -0.4714
vn 0.9569 -0.0000 -0.2903
vn 0.9952 -0.0000 -0.0980
vn 0.9952 -0.0000 0.0980
vn 0.9569 -0.0000 0.2903
vn 0.8819 -0.0000 0.4714
vn 0.7730 -0.0000 0.6344
vn 0.6344 -0.0000 0.7730
vn 0.4714 -0.0000 0.8819
vn 0.2903 -0.0000 0.9569
vn 0.0980 -0.0000 0.9952
vn -0.0980 -0.0000 0.9952
vn -0.2903 -0.0000 0.9569
vn -0.4714 -0.0000 0.8819
vn -0.6344 -0.0000 0.7730
vn -0.7730 -0.0000 0.6344
vn -0.8819 -0.0000 0.4714
vn -0.9569 -0.0000 0.2903
vn -0.9952 -0.0000 0.0980
vn -0.9952 -0.0000 -0.0980
vn -0.9569 -0.0000 -0.2903
vn -0.8819 -0.0000 -0.4714
vn -0.7730 -0.0000 -0.6344
vn -0.6344 -0.0000 -0.7730
vn -0.4714 -0.0000 -0.8819
vn -0.0000 1.0000 -0.0000
vn -0.2903 -0.0000 -0.9569
vn -0.0980 -0.0000 -0.9952
vn -0.0000 -1.0000 -0.0000
vn 0.0980 0.9952 -0.0000
vn 0.2903 0.9569 -0.0000
vn 0.4714 0.8819 -0.0000
vn 0.6344 0.7730 -0.0000
vn 0.7730 0.6344 -0.0000
vn 0.8819 0.4714 -0.0000
vn 0.9569 0.2903 -0.0000
vn 0.9952 0.0980 -0.0000
vn 0.9952 -0.0980 -0.0000
vn 0.9569 -0.2903 -0.0000
vn 0.8819 -0.4714 -0.0000
vn 0.7730 -0.6344 -0.0000
vn 0.6344 -0.7730 -0.0000
vn 0.4714 -0.8819 -0.0000
vn 0.2903 -0.9569 -0.0000
vn 0.0980 -0.9952 -0.0000
vn -0.0980 -0.9952 -0.0000
vn -0.2903 -0.9569 -0.0000
vn -0.4714 -0.8819 -0.0000
vn -0.6344 -0.7730 -0.0000
vn -0.7730 -0.6344 -0.0000
vn -0.8819 -0.4714 -0.0000
vn -0.9569 -0.2903 -0.0000
vn -0.9952 -0.0980 -0.0000
vn -0.9952 0.0980 -0.0000
vn -0.9569 0.2903 -0.0000
vn -0.8819 0.4714 -0.0000
vn -0.7730 0.6344 -0.0000
vn -0.6344 0.7730 -0.0000
vn -0.4714 0.8819 -0.0000
vn -0.0000 -0.0000 1.0000
vn -0.2903 0.9569 -0.0000
vn -0.0980 0.9952 -0.0000
vn -0.0000 -0.0000 -1.0000
vn -0.0000 0.9952 0.0980
vn -0.0000 0.9569 0.2903
vn -0.0000 0.8819 0.4714
vn -0.0000 0.7730 0.6344
vn -0.0000 0.6344 0.7730
vn -0.0000 0.4714 0.8819
vn -0.0000 0.2903 0.9569
vn -0.0000 0.0980 0.9952
vn -0.0000 -0.0980 0.9952
vn -0.0000 -0.2903 0.9569
vn -0.0000 -0.4714 0.8819
vn -0.0000 -0.6344 0.7730
vn -0.0000 -0.7730 0.6344
vn -0.0000 -0.8819 0.4714
vn -0.0000 -0.9569 0.2903
vn -0.0000 -0.9952 0.0980
vn -0.0000 -0.9952 -0.0980
vn -0.0000 -0.9569 -0.2903
vn -0.0000 -0.8819 -0.4714
vn -0.0000 -0.7730 -0.6344
vn -0.0000 -0.6344 -0.7730
vn -0.0000 -0.4714 -0.8819
vn -0.0000 -0.2903 -0.9569
vn -0.0000 -0.0980 -0.9952
vn -0.0000 0.0980 -0.9952
vn -0.0000 0.2903 -0.9569
vn -0.0000 0.4714 -0.8819
vn -0.0000 0.6344 -0.7730
vn -0.0000 0.7730 -0.6344
vn -0.0000 0.8819 -0.4714
vn -1.0000 -0.0000 -0.0000
vn -0.0000 0.9569 -0.2903
vn -0.0000 0.9952 -0.0980
vn 1.0000 -0.0000 -0.0000
vn 0.0004 1.0000 -0.0000
vn -0.0004 1.0000 -0.0000
vn -0.0002 -1.0000 -0.0000
vn -0.0004 -1.0000 -0.0000
vn 0.0002 -1.0000 -0.0000
vn 0.0004 -1.0000 -0.0000
vn -0.0000 -0.0003 1.0000
vn -0.0000 0.0003 1.0000
vn -0.0000 0.0002 1.0000
vn -0.0000 -0.0001 1.0000
vn -0.0000 -0.0002 1.0000
vn -0.0000 0.0001 1.0000
vn -0.0000 -0.0003 -1.0000
vn -0.0000 0.0003 -1.0000
vn -0.0000 0.0001 -1.0000
vn -0.0000 -0.0002 -1.0000
vn -0.0000 0.0002 -1.0000
vn -0.0000 -0.0001 -1.0000
vn -1.0000 -0.0000 0.0002
vn -1.0000 -0.0000 0.0004
vn -1.0000 -0.0000 -0.0004
vn -1.0000 -0.0000 -0.0002
vn -1.0000 -0.0000 -0.0001
vn -1.0000 -0.0000 0.0001
vn 1.0000 -0.0000 0.0004
vn 1.0000 -0.0000 -0.0004
vn 1.0000 -0.0000 -0.0001
vn 1.0000 -0.0000 0.0001
vt 1.000000 1.000000
vt 0.968750 0.500000
vt 1.000000 0.500000
vt 0.968750 1.000000
vt 0.937500 0.500000
vt 0.937500 1.000000
vt 0.906250 0.500000
vt 0.906250 1.000000
vt 0.875000 0.500000
vt 0.875000 1.000000
vt 0.843750 0.500000
vt 0.843750 1.000000
vt 0.812500 0.500000
vt 0.812500 1.000000
vt 0.781250 0.500000
vt 0.781250 1.000000
vt 0.750000 0.500000
vt 0.750000 1.000000
vt 0.718750 0.500000
vt 0.718750 1.000000
vt 0.687500 0.500000
vt 0.687500 1.000000
vt 0.656250 0.500000
vt 0.656250 1.000000
vt 0.625000 0.500000
vt 0.625000 1.000000
vt 0.593750 0.500000
vt 0.593750 1.000000
vt 0.562500 0.500000
vt 0.562500 1.000000
vt 0.531250 0.500000
vt 0.531250 1.000000
vt 0.500000 0.500000
vt 0.500000 1.000000
vt 0.468750 0.500000
vt 0.468750 1.000000
vt 0.437500 0.500000
vt 0.437500 1.000000
vt 0.406250 0.500000
vt 0.406250 1.000000
vt 0.375000 0.500000
vt 0.375000 1.000000
vt 0.343750 0.500000
vt 0.343750 1.000000
vt 0.312500 0.500000
vt 0.312500 1.000000
vt 0.281250 0.500000
vt 0.281250 1.000000
vt 0.250000 0.500000
vt 0.250000 1.000000
vt 0.218750 0.500000
vt 0.218750 1.000000
vt 0.187500 0.500000
vt 0.187500 1.000000
vt 0.156250 0.500000
vt 0.156250 1.000000
vt 0.125000 0.500000
vt 0.125000 1.000000
vt 0.093750 0.500000
vt 0.093750 1.000000
vt 0.062500 0.500000
vt 0.158156 0.028269
vt 0.471731 0.158156
vt 0.341844 0.471731
vt 0.062500 1.000000
vt 0.031250 0.500000
vt 0.031250 1.000000
vt 0.000000 0.500000
vt 0.796822 0.014612
vt 0.514612 0.203178
vt 0.703178 0.485388
vt 0.296822 0.485388
vt 0.250000 0.490000
vt 0.203178 0.485388
vt 0.158156 0.471731
vt 0.116663 0.449553
vt 0.080294 0.419706
vt 0.050447 0.383337
vt 0.028269 0.341844
vt 0.014612 0.296822
vt 0.010000 0.250000
vt 0.014612 0.203178
vt 0.028269 0.158156
vt 0.050447 0.116663
vt 0.080294 0.080294
vt 0.116663 0.050447
vt 0.203178 0.014612
vt 0.250000 0.010000
vt 0.296822 0.014612
vt 0.341844 0.028269
vt 0.383337 0.050447
vt 0.419706 0.080294
vt 0.449553 0.116663
vt 0.485388 0.203178
vt 0.490000 0.250000
vt 0.485388 0.296822
vt 0.471731 0.341844
vt 0.449553 0.383337
vt 0.419706 0.419706
vt 0.383337 0.449553
vt 0.000000 1.000000
vt 0.750000 0.490000
vt 0.796822 0.485388
vt 0.841844 0.471731
vt 0.883337 0.449553
vt 0.919706 0.419706
vt 0.949553 0.383337
vt 0.971731 0.341844
vt 0.985388 0.296822
vt 0.990000 0.250000
vt 0.985388 0.203178
vt 0.971731 0.158156
vt 0.949553 0.116663
vt 0.919706 0.080294
vt 0.883337 0.050447
vt 0.841844 0.028269
vt 0.750000 0.010000
vt 0.703178 0.014612
vt 0.658156 0.028269
vt 0.616663 0.050447
vt 0.580294 0.080294
vt 0.550447 0.116663
vt 0.528269 0.158156
vt 0.510000 0.250000
vt 0.514612 0.296822
vt 0.528269 0.341844
vt 0.550447 0.383337
vt 0.580294 0.419706
vt 0.616663 0.449553
vt 0.658156 0.471731
s 0
f 2/1/1 3/2/1 1/3/1
f 4/4/2 5/5/2 3/2/2
f 6/6/3 7/7/3 5/5/3
f 8/8/4 9/9/4 7/7/4
f 10/10/5 11/11/5 9/9/5
f 12/12/6 13/13/6 11/11/6
f 14/14/7 15/15/7 13/13/7
f 16/16/8 17/17/8 15/15/8
f 18/18/9 19/19/9 17/17/9
f 20/20/10 21/21/10 19/19/10
f 22/22/11 23/23/11 21/21/11
f 24/24/12 25/25/12 23/23/12
f 26/26/13 27/27/13 25/25/13
f 28/28/14 29/29/14 27/27/14
f 30/30/15 31/31/15 29/29/15
f 32/32/16 33/33/16 31/31/16
f 34/34/17 35/35/17 33/33/17
f 36/36/18 37/37/18 35/35/18
f 38/38/19 39/39/19 37/37/19
f 40/40/20 41/41/20 39/39/20
f 42/42/21 43/43/21 41/41/21
f 44/44/22 45/45/22 43/43/22
f 46/46/23 47/47/23 45/45/23
f 48/48/24 49/49/24 47/47/24
f 50/50/25 51/51/25 49/49/25
f 52/52/26 53/53/26 51/51/26
f 54/54/27 55/55/27 53/53/27
f 56/56/28 57/57/28 55/55/28
f 58/58/29 59/59/29 57/57/29
f 60/60/30 61/61/30 59/59/30
f 38/62/31 22/63/31 6/64/31
f 62/65/32 63/66/32 61/61/32
f 64/67/33 1/68/33 63/66/33
f 31/69/34 47/70/34 63/71/34
f 66/1/35 67/2/35 65/3/35
f 68/4/36 69/5/36 67/2/36
f 70/6/37 71/7/37 69/5/37
f 72/8/38 73/9/38 71/7/38
f 73/9/39 76/12/39 75/11/39
f 76/12/40 77/13/40 75/11/40
f 78/14/41 79/15/41 77/13/41
f 80/16/42 81/17/42 79/15/42
f 82/18/43 83/19/43 81/17/43
f 84/20/44 85/21/44 83/19/44
f 86/22/45 87/23/45 85/21/45
f 87/23/46 90/26/46 89/25/46
f 90/26/47 91/27/47 89/25/47
f 92/28/48 93/29/48 91/27/48
f 94/30/49 95/31/49 93/29/49
f 96/32/50 97/33/50 95/31/50
f 98/34/51 99/35/51 97/33/51
f 99/35/52 102/38/52 101/37/52
f 102/38/53 103/39/53 101/37/53
f 104/40/54 105/41/54 103/39/54
f 106/42/55 107/43/55 105/41/55
f 108/44/56 109/45/56 107/43/56
f 110/46/57 111/47/57 109/45/57
f 112/48/58 113/49/58 111/47/58
f 114/50/59 115/51/59 113/49/59
f 116/52/60 117/53/60 115/51/60
f 118/54/61 119/55/61 117/53/61
f 120/56/62 121/57/62 119/55/62
f 122/58/63 123/59/63 121/57/63
f 124/60/64 125/61/64 123/59/64
f 102/62/65 86/63/65 70/64/65
f 125/61/66 128/67/66 127/66/66
f 128/67/67 65/68/67 127/66/67
f 95/69/68 111/70/68 127/71/68
f 130/1/69 131/2/69 129/3/69
f 132/4/70 133/5/70 131/2/70
f 134/6/71 135/7/71 133/5/71
f 136/8/72 137/9/72 135/7/72
f 137/9/73 140/12/73 139/11/73
f 140/12/74 141/13/74 139/11/74
f 142/14/75 143/15/75 141/13/75
f 144/16/76 145/17/76 143/15/76
f 146/18/77 147/19/77 145/17/77
f 147/19/78 150/22/78 149/21/78
f 150/22/79 151/23/79 149/21/79
f 151/23/80 154/26/80 153/25/80
f 154/26/81 155/27/81 153/25/81
f 156/28/82 157/29/82 155/27/82
f 158/30/83 159/31/83 157/29/83
f 160/32/84 161/33/84 159/31/84
f 162/34/85 163/35/85 161/33/85
f 164/36/86 165/37/86 163/35/86
f 166/38/87 167/39/87 165/37/87
f 168/40/88 169/41/88 167/39/88
f 170/42/89 171/43/89 169/41/89
f 172/44/90 173/45/90 171/43/90
f 174/46/91 175/47/91 173/45/91
f 176/48/92 177/49/92 175/47/92
f 178/50/93 179/51/93 177/49/93
f 180/52/94 181/53/94 179/51/94
f 182/54/95 183/55/95 181/53/95
f 184/56/96 185/57/96 183/55/96
f 186/58/97 187/59/97 185/57/97
f 188/60/98 189/61/98 187/59/98
f 166/62/99 150/63/99 134/64/99
f 189/61/100 192/67/100 191/66/100
f 192/67/101 129/68/101 191/66/101
f 159/69/102 175/70/102 191/71/102
f 2/1/1 4/4/1 3/2/1
f 4/4/2 6/6/2 5/5/2
f 6/6/3 8/8/3 7/7/3
f 8/8/4 10/10/4 9/9/4
f 10/10/5 12/12/5 11/11/5
f 12/12/6 14/14/6 13/13/6
f 14/14/7 16/16/7 15/15/7
f 16/16/8 18/18/8 17/17/8
f 18/18/9 20/20/9 19/19/9
f 20/20/10 22/22/10 21/21/10
f 22/22/11 24/24/11 23/23/11
f 24/24/12 26/26/12 25/25/12
f 26/26/13 28/28/13 27/27/13
f 28/28/14 30/30/14 29/29/14
f 30/30/15 32/32/15 31/31/15
f 32/32/16 34/34/16 33/33/16
f 34/34/17 36/36/17 35/35/17
f 36/36/18 38/38/18 37/37/18
f 38/38/19 40/40/19 39/39/19
f 40/40/20 42/42/20 41/41/20
f 42/42/21 44/44/21 43/43/21
f 44/44/22 46/46/22 45/45/22
f 46/46/23 48/48/23 47/47/23
f 48/48/24 50/50/24 49/49/24
f 50/50/25 52/52/25 51/51/25
f 52/52/26 54/54/26 53/53/26
f 54/54/27 56/56/27 55/55/27
f 56/56/28 58/58/28 57/57/28
f 58/58/29 60/60/29 59/59/29
f 60/60/30 62/65/30 61/61/30
f 6/64/31 4/72/31 2/73/31
f 2/73/31 64/74/31 62/75/31
f 62/75/31 60/76/31 58/77/31
f 58/77/103 56/78/103 54/79/103
f 54/79/31 52/80/31 50/81/31
f 50/81/31 48/82/31 46/83/31
f 46/83/103 44/84/103 42/85/103
f 42/85/31 40/86/31 38/62/31
f 38/62/31 36/87/31 34/88/31
f 34/88/31 32/89/31 30/90/31
f 30/90/31 28/91/31 26/92/31
f 26/92/104 24/93/104 22/63/104
f 22/63/31 20/94/31 18/95/31
f 18/95/31 16/96/31 14/97/31
f 14/97/104 12/98/104 10/99/104
f 10/99/31 8/100/31 6/64/31
f 6/64/31 2/73/31 62/75/31
f 62/75/31 58/77/31 54/79/31
f 54/79/31 50/81/31 46/83/31
f 46/83/31 42/85/31 38/62/31
f 38/62/31 34/88/31 30/90/31
f 30/90/31 26/92/31 22/63/31
f 22/63/31 18/95/31 14/97/31
f 14/97/31 10/99/31 6/64/31
f 6/64/31 62/75/31 54/79/31
f 54/79/31 46/83/31 38/62/31
f 38/62/31 30/90/31 22/63/31
f 22/63/31 14/97/31 6/64/31
f 6/64/31 54/79/31 38/62/31
f 62/65/32 64/67/32 63/66/32
f 64/67/33 2/101/33 1/68/33
f 63/71/34 1/102/34 3/103/34
f 3/103/34 5/104/34 7/105/34
f 7/105/105 9/106/105 11/107/105
f 11/107/106 13/108/106 15/109/106
f 15/109/34 17/110/34 19/111/34
f 19/111/106 21/112/106 23/113/106
f 23/113/105 25/114/105 27/115/105
f 27/115/34 29/116/34 31/69/34
f 31/69/34 33/117/34 35/118/34
f 35/118/34 37/119/34 39/120/34
f 39/120/107 41/121/107 43/122/107
f 43/122/108 45/123/108 47/70/108
f 47/70/34 49/124/34 51/125/34
f 51/125/108 53/126/108 55/127/108
f 55/127/107 57/128/107 59/129/107
f 59/129/34 61/130/34 63/71/34
f 63/71/34 3/103/34 7/105/34
f 7/105/34 11/107/34 15/109/34
f 15/109/34 19/111/34 23/113/34
f 23/113/34 27/115/34 31/69/34
f 31/69/34 35/118/34 39/120/34
f 39/120/34 43/122/34 47/70/34
f 47/70/34 51/125/34 55/127/34
f 55/127/34 59/129/34 63/71/34
f 63/71/34 7/105/34 15/109/34
f 15/109/34 23/113/34 31/69/34
f 31/69/34 39/120/34 47/70/34
f 47/70/34 55/127/34 63/71/34
f 63/71/34 15/109/34 31/69/34
f 66/1/35 68/4/35 67/2/35
f 68/4/36 70/6/36 69/5/36
f 70/6/37 72/8/37 71/7/37
f 72/8/38 74/10/38 73/9/38
f 73/9/39 74/10/39 76/12/39
f 76/12/40 78/14/40 77/13/40
f 78/14/41 80/16/41 79/15/41
f 80/16/42 82/18/42 81/17/42
f 82/18/43 84/20/43 83/19/43
f 84/20/44 86/22/44 85/21/44
f 86/22/45 88/24/45 87/23/45
f 87/23/46 88/24/46 90/26/46
f 90/26/47 92/28/47 91/27/47
f 92/28/48 94/30/48 93/29/48
f 94/30/49 96/32/49 95/31/49
f 96/32/50 98/34/50 97/33/50
f 98/34/51 100/36/51 99/35/51
f 99/35/52 100/36/52 102/38/52
f 102/38/53 104/40/53 103/39/53
f 104/40/54 106/42/54 105/41/54
f 106/42/55 108/44/55 107/43/55
f 108/44/56 110/46/56 109/45/56
f 110/46/57 112/48/57 111/47/57
f 112/48/58 114/50/58 113/49/58
f 114/50/59 116/52/59 115/51/59
f 116/52/60 118/54/60 117/53/60
f 118/54/61 120/56/61 119/55/61
f 120/56/62 122/58/62 121/57/62
f 122/58/63 124/60/63 123/59/63
f 124/60/64 126/65/64 125/61/64
f 70/64/109 68/72/109 66/73/109
f 66/73/109 128/74/109 126/75/109
f 126/75/110 124/76/110 122/77/110
f 122/77/65 120/78/65 118/79/65
f 118/79/65 116/80/65 114/81/65
f 114/81/65 112/82/65 110/83/65
f 110/83/65 108/84/65 106/85/65
f 106/85/109 104/86/109 102/62/109
f 102/62/110 100/87/110 98/88/110
f 98/88/110 96/89/110 94/90/110
f 94/90/110 92/91/110 90/92/110
f 90/92/111 88/93/111 86/63/111
f 86/63/65 84/94/65 82/95/65
f 82/95/112 80/96/112 78/97/112
f 78/97/113 76/98/113 74/99/113
f 74/99/109 72/100/109 70/64/109
f 70/64/65 66/73/65 126/75/65
f 126/75/65 122/77/65 118/79/65
f 118/79/65 114/81/65 110/83/65
f 110/83/114 106/85/114 102/62/114
f 102/62/65 98/88/65 94/90/65
f 94/90/65 90/92/65 86/63/65
f 86/63/65 82/95/65 78/97/65
f 78/97/65 74/99/65 70/64/65
f 70/64/65 126/75/65 118/79/65
f 118/79/65 110/83/65 102/62/65
f 102/62/65 94/90/65 86/63/65
f 86/63/65 78/97/65 70/64/65
f 70/64/65 118/79/65 102/62/65
f 125/61/66 126/65/66 128/67/66
f 128/67/67 66/101/67 65/68/67
f 127/71/115 65/102/115 67/103/115
f 67/103/116 69/104/116 71/105/116
f 71/105/115 73/106/115 75/107/115
f 75/107/117 77/108/117 79/109/117
f 79/109/68 81/110/68 83/111/68
f 83/111/118 85/112/118 87/113/118
f 87/113/116 89/114/116 91/115/116
f 91/115/115 93/116/115 95/69/115
f 95/69/116 97/117/116 99/118/116
f 99/118/68 101/119/68 103/120/68
f 103/120/119 105/121/119 107/122/119
f 107/122/68 109/123/68 111/70/68
f 111/70/68 113/124/68 115/125/68
f 115/125/68 117/126/68 119/127/68
f 119/127/115 121/128/115 123/129/115
f 123/129/68 125/130/68 127/71/68
f 127/71/68 67/103/68 71/105/68
f 71/105/68 75/107/68 79/109/68
f 79/109/68 83/111/68 87/113/68
f 87/113/68 91/115/68 95/69/68
f 95/69/120 99/118/120 103/120/120
f 103/120/68 107/122/68 111/70/68
f 111/70/68 115/125/68 119/127/68
f 119/127/68 123/129/68 127/71/68
f 127/71/68 71/105/68 79/109/68
f 79/109/68 87/113/68 95/69/68
f 95/69/68 103/120/68 111/70/68
f 111/70/68 119/127/68 127/71/68
f 127/71/68 79/109/68 95/69/68
f 130/1/69 132/4/69 131/2/69
f 132/4/70 134/6/70 133/5/70
f 134/6/71 136/8/71 135/7/71
f 136/8/72 138/10/72 137/9/72
f 137/9/73 138/10/73 140/12/73
f 140/12/74 142/14/74 141/13/74
f 142/14/75 144/16/75 143/15/75
f 144/16/76 146/18/76 145/17/76
f 146/18/77 148/20/77 147/19/77
f 147/19/78 148/20/78 150/22/78
f 150/22/79 152/24/79 151/23/79
f 151/23/80 152/24/80 154/26/80
f 154/26/81 156/28/81 155/27/81
f 156/28/82 158/30/82 157/29/82
f 158/30/83 160/32/83 159/31/83
f 160/32/84 162/34/84 161/33/84
f 162/34/85 164/36/85 163/35/85
f 164/36/86 166/38/86 165/37/86
f 166/38/87 168/40/87 167/39/87
f 168/40/88 170/42/88 169/41/88
f 170/42/89 172/44/89 171/43/89
f 172/44/90 174/46/90 173/45/90
f 174/46/91 176/48/91 175/47/91
f 176/48/92 178/50/92 177/49/92
f 178/50/93 180/52/93 179/51/93
f 180/52/94 182/54/94 181/53/94
f 182/54/95 184/56/95 183/55/95
f 184/56/96 186/58/96 185/57/96
f 186/58/97 188/60/97 187/59/97
f 188/60/98 190/65/98 189/61/98
f 134/64/99 132/72/99 130/73/99
f 130/73/99 192/74/99 190/75/99
f 190/75/121 188/76/121 186/77/121
f 186/77/122 184/78/122 182/79/122
f 182/79/123 180/80/123 178/81/123
f 178/81/123 176/82/123 174/83/123
f 174/83/121 172/84/121 170/85/121
f 170/85/121 168/86/121 166/62/121
f 166/62/99 164/87/99 162/88/99
f 162/88/99 160/89/99 158/90/99
f 158/90/124 156/91/124 154/92/124
f 154/92/123 152/93/123 150/63/123
f 150/63/122 148/94/122 146/95/122
f 146/95/122 144/96/122 142/97/122
f 142/97/124 140/98/124 138/99/124
f 138/99/124 136/100/124 134/64/124
f 134/64/99 130/73/99 190/75/99
f 190/75/125 186/77/125 182/79/125
f 182/79/99 178/81/99 174/83/99
f 174/83/125 170/85/125 166/62/125
f 166/62/99 162/88/99 158/90/99
f 158/90/126 154/92/126 150/63/126
f 150/63/99 146/95/99 142/97/99
f 142/97/126 138/99/126 134/64/126
f 134/64/99 190/75/99 182/79/99
f 182/79/99 174/83/99 166/62/99
f 166/62/99 158/90/99 150/63/99
f 150/63/99 142/97/99 134/64/99
f 134/64/99 182/79/99 166/62/99
f 189/61/100 190/65/100 192/67/100
f 192/67/101 130/101/101 129/68/101
f 191/71/102 129/102/102 131/103/102
f 131/103/102 133/104/102 135/105/102
f 135/105/102 137/106/102 139/107/102
f 139/107/127 141/108/127 143/109/127
f 143/109/102 145/110/102 147/111/102
f 147/111/127 149/112/127 151/113/127
f 151/113/102 153/114/102 155/115/102
f 155/115/102 157/116/102 159/69/102
f 159/69/102 161/117/102 163/118/102
f 163/118/102 165/119/102 167/120/102
f 167/120/102 169/121/102 171/122/102
f 171/122/128 173/123/128 175/70/128
f 175/70/102 177/124/102 179/125/102
f 179/125/128 181/126/128 183/127/128
f 183/127/102 185/128/102 187/129/102
f 187/129/102 189/130/102 191/71/102
f 191/71/102 131/103/102 135/105/102
f 135/105/102 139/107/102 143/109/102
f 143/109/129 147/111/129 151/113/129
f 151/113/102 155/115/102 159/69/102
f 159/69/102 163/118/102 167/120/102
f 167/120/102 171/122/102 175/70/102
f 175/70/130 179/125/130 183/127/130
f 183/127/102 187/129/102 191/71/102
f 191/71/102 135/105/102 143/109/102
f 143/109/102 151/113/102 159/69/102
f 159/69/102 167/120/102 175/70/102
f 175/70/102 183/127/102 191/71/102
f 191/71/102 143/109/102 159/69/102
