# Blender 4.2.3 LTS
# www.blender.org
mtllib smoothbox.mtl
o Cube
v -0.415000 -0.500000 0.415000
v -0.415000 -0.415000 0.500000
v -0.500000 -0.415000 0.415000
v -0.415000 -0.495838 0.441271
v -0.415000 -0.483772 0.464953
v -0.441271 -0.495838 0.415000
v -0.441968 -0.490910 0.442120
v -0.441089 -0.479519 0.463802
v -0.464953 -0.483772 0.415000
v -0.463846 -0.479459 0.441156
v -0.459975 -0.471387 0.459975
v -0.441271 -0.415000 0.495838
v -0.464953 -0.415000 0.483772
v -0.415000 -0.441271 0.495838
v -0.442120 -0.441968 0.490910
v -0.463802 -0.441089 0.479519
v -0.415000 -0.464953 0.483772
v -0.441156 -0.463846 0.479459
v -0.459975 -0.459975 0.471387
v -0.495838 -0.441271 0.415000
v -0.483772 -0.464953 0.415000
v -0.495838 -0.415000 0.441271
v -0.490910 -0.442120 0.441968
v -0.479519 -0.463802 0.441089
v -0.483772 -0.415000 0.464953
v -0.479459 -0.441156 0.463846
v -0.471387 -0.459975 0.459975
v -0.415000 0.415000 0.500000
v -0.415000 0.500000 0.415000
v -0.500000 0.415000 0.415000
v -0.415000 0.441271 0.495838
v -0.415000 0.464953 0.483772
v -0.441271 0.415000 0.495838
v -0.441968 0.442120 0.490910
v -0.441089 0.463802 0.479519
v -0.464953 0.415000 0.483772
v -0.463846 0.441156 0.479459
v -0.459975 0.459975 0.471387
v -0.441271 0.495838 0.415000
v -0.464953 0.483772 0.415000
v -0.415000 0.495838 0.441271
v -0.442120 0.490910 0.441968
v -0.463802 0.479519 0.441089
v -0.415000 0.483772 0.464953
v -0.441156 0.479459 0.463846
v -0.459975 0.471387 0.459975
v -0.495838 0.415000 0.441271
v -0.483772 0.415000 0.464953
v -0.495838 0.441271 0.415000
v -0.490910 0.441968 0.442120
v -0.479519 0.441089 0.463802
v -0.483772 0.464953 0.415000
v -0.479459 0.463846 0.441156
v -0.471387 0.459975 0.459975
v -0.415000 -0.500000 -0.415000
v -0.500000 -0.415000 -0.415000
v -0.415000 -0.415000 -0.500000
v -0.441271 -0.495838 -0.415000
v -0.464953 -0.483772 -0.415000
v -0.415000 -0.495838 -0.441271
v -0.442120 -0.490910 -0.441968
v -0.463802 -0.479519 -0.441089
v -0.415000 -0.483772 -0.464953
v -0.441156 -0.479459 -0.463846
v -0.459975 -0.471387 -0.459975
v -0.495838 -0.415000 -0.441271
v -0.483772 -0.415000 -0.464953
v -0.495838 -0.441271 -0.415000
v -0.490910 -0.441968 -0.442120
v -0.479519 -0.441089 -0.463802
v -0.483772 -0.464953 -0.415000
v -0.479459 -0.463846 -0.441156
v -0.471387 -0.459975 -0.459975
v -0.415000 -0.441271 -0.495838
v -0.415000 -0.464953 -0.483772
v -0.441271 -0.415000 -0.495838
v -0.441968 -0.442120 -0.490910
v -0.441089 -0.463802 -0.479519
v -0.464953 -0.415000 -0.483772
v -0.463846 -0.441156 -0.479459
v -0.459975 -0.459975 -0.471387
v -0.415000 0.500000 -0.415000
v -0.415000 0.415000 -0.500000
v -0.500000 0.415000 -0.415000
v -0.415000 0.495838 -0.441271
v -0.415000 0.483772 -0.464953
v -0.441271 0.495838 -0.415000
v -0.441968 0.490910 -0.442120
v -0.441089 0.479519 -0.463802
v -0.464953 0.483772 -0.415000
v -0.463846 0.479459 -0.441156
v -0.459975 0.471387 -0.459975
v -0.441271 0.415000 -0.495838
v -0.464953 0.415000 -0.483772
v -0.415000 0.441271 -0.495838
v -0.442120 0.441968 -0.490910
v -0.463802 0.441089 -0.479519
v -0.415000 0.464953 -0.483772
v -0.441156 0.463846 -0.479459
v -0.459975 0.459975 -0.471387
v -0.495838 0.441271 -0.415000
v -0.483772 0.464953 -0.415000
v -0.495838 0.415000 -0.441271
v -0.490910 0.442120 -0.441968
v -0.479519 0.463802 -0.441089
v -0.483772 0.415000 -0.464953
v -0.479459 0.441156 -0.463846
v -0.471387 0.459975 -0.459975
v 0.415000 -0.500000 0.415000
v 0.500000 -0.415000 0.415000
v 0.415000 -0.415000 0.500000
v 0.441271 -0.495838 0.415000
v 0.464953 -0.483772 0.415000
v 0.415000 -0.495838 0.441271
v 0.442120 -0.490910 0.441968
v 0.463802 -0.479519 0.441089
v 0.415000 -0.483772 0.464953
v 0.441156 -0.479459 0.463846
v 0.459975 -0.471387 0.459975
v 0.495838 -0.415000 0.441271
v 0.483772 -0.415000 0.464953
v 0.495838 -0.441271 0.415000
v 0.490910 -0.441968 0.442120
v 0.479519 -0.441089 0.463802
v 0.483772 -0.464953 0.415000
v 0.479459 -0.463846 0.441156
v 0.471387 -0.459975 0.459975
v 0.415000 -0.441271 0.495838
v 0.415000 -0.464953 0.483772
v 0.441271 -0.415000 0.495838
v 0.441968 -0.442120 0.490910
v 0.441089 -0.463802 0.479519
v 0.464953 -0.415000 0.483772
v 0.463846 -0.441156 0.479459
v 0.459975 -0.459975 0.471387
v 0.415000 0.500000 0.415000
v 0.415000 0.415000 0.500000
v 0.500000 0.415000 0.415000
v 0.415000 0.495838 0.441271
v 0.415000 0.483772 0.464953
v 0.441271 0.495838 0.415000
v 0.441968 0.490910 0.442120
v 0.441089 0.479519 0.463802
v 0.464953 0.483772 0.415000
v 0.463846 0.479459 0.441156
v 0.459975 0.471387 0.459975
v 0.441271 0.415000 0.495838
v 0.464953 0.415000 0.483772
v 0.415000 0.441271 0.495838
v 0.442120 0.441968 0.490910
v 0.463802 0.441089 0.479519
v 0.415000 0.464953 0.483772
v 0.441156 0.463846 0.479459
v 0.459975 0.459975 0.471387
v 0.495838 0.441271 0.415000
v 0.483772 0.464953 0.415000
v 0.495838 0.415000 0.441271
v 0.490910 0.442120 0.441968
v 0.479519 0.463802 0.441089
v 0.483772 0.415000 0.464953
v 0.479459 0.441156 0.463846
v 0.471387 0.459975 0.459975
v 0.415000 -0.500000 -0.415000
v 0.415000 -0.415000 -0.500000
v 0.500000 -0.415000 -0.415000
v 0.415000 -0.495838 -0.441271
v 0.415000 -0.483772 -0.464953
v 0.441271 -0.495838 -0.415000
v 0.441968 -0.490910 -0.442120
v 0.441089 -0.479519 -0.463802
v 0.464953 -0.483772 -0.415000
v 0.463846 -0.479459 -0.441156
v 0.459975 -0.471387 -0.459975
v 0.441271 -0.415000 -0.495838
v 0.464953 -0.415000 -0.483772
v 0.415000 -0.441271 -0.495838
v 0.442120 -0.441968 -0.490910
v 0.463802 -0.441089 -0.479519
v 0.415000 -0.464953 -0.483772
v 0.441156 -0.463846 -0.479459
v 0.459975 -0.459975 -0.471387
v 0.495838 -0.441271 -0.415000
v 0.483772 -0.464953 -0.415000
v 0.495838 -0.415000 -0.441271
v 0.490910 -0.442120 -0.441968
v 0.479519 -0.463802 -0.441089
v 0.483772 -0.415000 -0.464953
v 0.479459 -0.441156 -0.463846
v 0.471387 -0.459975 -0.459975
v 0.415000 0.500000 -0.415000
v 0.500000 0.415000 -0.415000
v 0.415000 0.415000 -0.500000
v 0.441271 0.495838 -0.415000
v 0.464953 0.483772 -0.415000
v 0.415000 0.495838 -0.441271
v 0.442120 0.490910 -0.441968
v 0.463802 0.479519 -0.441089
v 0.415000 0.483772 -0.464953
v 0.441156 0.479459 -0.463846
v 0.459975 0.471387 -0.459975
v 0.495838 0.415000 -0.441271
v 0.483772 0.415000 -0.464953
v 0.495838 0.441271 -0.415000
v 0.490910 0.441968 -0.442120
v 0.479519 0.441089 -0.463802
v 0.483772 0.464953 -0.415000
v 0.479459 0.463846 -0.441156
v 0.471387 0.459975 -0.459975
v 0.415000 0.441271 -0.495838
v 0.415000 0.464953 -0.483772
v 0.441271 0.415000 -0.495838
v 0.441968 0.442120 -0.490910
v 0.441089 0.463802 -0.479519
v 0.464953 0.415000 -0.483772
v 0.463846 0.441156 -0.479459
v 0.459975 0.459975 -0.471387
vn -0.0000 -0.0000 1.0000
vn 1.0000 -0.0000 -0.0000
vn -0.0000 1.0000 -0.0000
vn -1.0000 -0.0000 -0.0000
vn -0.0000 -0.0000 -1.0000
vn -0.0637 -0.9349 0.3492
vn -0.3489 -0.9350 0.0630
vn 0.0101 -0.9999 -0.0101
vn -0.0574 -0.7855 0.6162
vn -0.3419 -0.8661 0.3646
vn 0.0083 -0.9539 0.3001
vn -0.0580 -0.5549 0.8299
vn -0.3294 -0.7173 0.6140
vn -0.0000 -0.8090 0.5878
vn -0.3636 -0.8660 0.3433
vn -0.6170 -0.7848 0.0581
vn -0.3006 -0.9537 -0.0079
vn -0.2662 -0.8927 0.3636
vn -0.4617 -0.6939 0.5526
vn -0.5719 -0.7699 0.2831
vn -0.3292 -0.5344 0.7785
vn -0.5487 -0.6333 0.5457
vn -0.2851 -0.7710 0.5695
vn -0.3492 -0.0637 0.9349
vn -0.0630 -0.3489 0.9350
vn 0.0101 0.0101 0.9999
vn -0.6162 -0.0574 0.7855
vn -0.3646 -0.3419 0.8661
vn -0.3001 0.0083 0.9539
vn -0.8299 -0.0580 0.5549
vn -0.6140 -0.3294 0.7173
vn -0.5878 -0.0000 0.8090
vn -0.3433 -0.3636 0.8660
vn -0.0581 -0.6170 0.7848
vn 0.0079 -0.3006 0.9537
vn -0.3636 -0.2662 0.8927
vn -0.5526 -0.4617 0.6939
vn -0.2831 -0.5719 0.7699
vn -0.7785 -0.3292 0.5344
vn -0.5457 -0.5487 0.6333
vn -0.5695 -0.2851 0.7710
vn -0.9349 -0.3492 0.0637
vn -0.9350 -0.0630 0.3489
vn -0.9999 0.0101 -0.0101
vn -0.7855 -0.6162 0.0574
vn -0.8661 -0.3646 0.3419
vn -0.9539 -0.3001 -0.0083
vn -0.5549 -0.8299 0.0580
vn -0.7173 -0.6140 0.3294
vn -0.8090 -0.5878 -0.0000
vn -0.8660 -0.3433 0.3636
vn -0.7848 -0.0581 0.6170
vn -0.9537 0.0079 0.3006
vn -0.8927 -0.3636 0.2662
vn -0.6939 -0.5526 0.4617
vn -0.7699 -0.2831 0.5719
vn -0.5344 -0.7785 0.3292
vn -0.6333 -0.5457 0.5487
vn -0.7710 -0.5695 0.2851
vn -0.5156 -0.6844 0.5155
vn -0.5155 -0.5156 0.6844
vn -0.6844 -0.5155 0.5156
vn -0.0637 0.3492 0.9349
vn -0.3489 0.0630 0.9350
vn 0.0101 -0.0101 0.9999
vn -0.0574 0.6162 0.7855
vn -0.3419 0.3646 0.8661
vn 0.0083 0.3001 0.9539
vn -0.0580 0.8299 0.5549
vn -0.3294 0.6140 0.7173
vn -0.0000 0.5878 0.8090
vn -0.3636 0.3433 0.8660
vn -0.6170 0.0581 0.7849
vn -0.3006 -0.0079 0.9537
vn -0.2662 0.3636 0.8927
vn -0.4617 0.5526 0.6939
vn -0.5719 0.2831 0.7699
vn -0.3292 0.7785 0.5344
vn -0.5487 0.5457 0.6333
vn -0.2851 0.5695 0.7710
vn -0.3492 0.9349 0.0637
vn -0.0630 0.9350 0.3489
vn 0.0101 0.9999 -0.0101
vn -0.6162 0.7855 0.0574
vn -0.3646 0.8661 0.3419
vn -0.3001 0.9539 -0.0083
vn -0.8299 0.5549 0.0580
vn -0.6140 0.7173 0.3294
vn -0.5878 0.8090 -0.0000
vn -0.3433 0.8660 0.3636
vn -0.0581 0.7849 0.6170
vn 0.0079 0.9537 0.3006
vn -0.3636 0.8927 0.2662
vn -0.5526 0.6939 0.4617
vn -0.2831 0.7699 0.5719
vn -0.7785 0.5344 0.3292
vn -0.5457 0.6333 0.5487
vn -0.5695 0.7710 0.2851
vn -0.9349 0.0637 0.3492
vn -0.9350 0.3489 0.0630
vn -0.9999 -0.0101 -0.0101
vn -0.7855 0.0574 0.6162
vn -0.8661 0.3419 0.3646
vn -0.9539 -0.0083 0.3001
vn -0.5549 0.0580 0.8299
vn -0.7173 0.3294 0.6140
vn -0.8090 -0.0000 0.5878
vn -0.8660 0.3636 0.3433
vn -0.7849 0.6170 0.0581
vn -0.9537 0.3006 -0.0079
vn -0.8927 0.2662 0.3636
vn -0.6939 0.4617 0.5526
vn -0.7699 0.5719 0.2831
vn -0.5344 0.3292 0.7785
vn -0.6333 0.5487 0.5457
vn -0.7710 0.2851 0.5695
vn -0.5156 0.5155 0.6844
vn -0.5155 0.6844 0.5156
vn -0.6844 0.5156 0.5155
vn -0.3492 -0.9349 -0.0637
vn -0.0630 -0.9350 -0.3489
vn 0.0101 -0.9999 0.0101
vn -0.6162 -0.7855 -0.0574
vn -0.3646 -0.8661 -0.3419
vn -0.3001 -0.9539 0.0083
vn -0.8299 -0.5549 -0.0580
vn -0.6140 -0.7173 -0.3294
vn -0.5878 -0.8090 -0.0000
vn -0.3433 -0.8660 -0.3636
vn -0.0581 -0.7849 -0.6170
vn 0.0079 -0.9537 -0.3006
vn -0.3636 -0.8927 -0.2662
vn -0.5526 -0.6939 -0.4617
vn -0.2831 -0.7699 -0.5719
vn -0.7785 -0.5344 -0.3292
vn -0.5457 -0.6333 -0.5487
vn -0.5695 -0.7710 -0.2851
vn -0.9349 -0.0637 -0.3492
vn -0.9350 -0.3489 -0.0630
vn -0.9999 0.0101 0.0101
vn -0.7855 -0.0574 -0.6162
vn -0.8661 -0.3419 -0.3646
vn -0.9539 0.0083 -0.3001
vn -0.5549 -0.0580 -0.8299
vn -0.7173 -0.3294 -0.6140
vn -0.8090 -0.0000 -0.5878
vn -0.8660 -0.3636 -0.3433
vn -0.7849 -0.6170 -0.0581
vn -0.9537 -0.3006 0.0079
vn -0.8927 -0.2662 -0.3636
vn -0.6939 -0.4617 -0.5526
vn -0.7699 -0.5719 -0.2831
vn -0.5344 -0.3292 -0.7785
vn -0.6333 -0.5487 -0.5457
vn -0.7710 -0.2851 -0.5695
vn -0.0637 -0.3492 -0.9349
vn -0.3489 -0.0630 -0.9350
vn 0.0101 0.0101 -0.9999
vn -0.0574 -0.6162 -0.7855
vn -0.3419 -0.3646 -0.8661
vn 0.0083 -0.3001 -0.9539
vn -0.0580 -0.8299 -0.5549
vn -0.3294 -0.6140 -0.7173
vn -0.0000 -0.5878 -0.8090
vn -0.3636 -0.3433 -0.8660
vn -0.6170 -0.0581 -0.7849
vn -0.3006 0.0079 -0.9537
vn -0.2662 -0.3636 -0.8927
vn -0.4617 -0.5526 -0.6939
vn -0.5719 -0.2831 -0.7699
vn -0.3292 -0.7785 -0.5344
vn -0.5487 -0.5457 -0.6333
vn -0.2851 -0.5695 -0.7710
vn -0.5155 -0.6844 -0.5156
vn -0.6844 -0.5156 -0.5155
vn -0.5156 -0.5155 -0.6844
vn -0.0637 0.9349 -0.3492
vn -0.3489 0.9350 -0.0630
vn 0.0101 0.9999 0.0101
vn -0.0574 0.7855 -0.6162
vn -0.3419 0.8661 -0.3646
vn 0.0083 0.9539 -0.3001
vn -0.0580 0.5549 -0.8299
vn -0.3294 0.7173 -0.6140
vn -0.0000 0.8090 -0.5878
vn -0.3636 0.8660 -0.3433
vn -0.6170 0.7848 -0.0581
vn -0.3006 0.9537 0.0079
vn -0.2662 0.8927 -0.3636
vn -0.4617 0.6939 -0.5526
vn -0.5719 0.7699 -0.2831
vn -0.3292 0.5344 -0.7785
vn -0.5487 0.6333 -0.5457
vn -0.2851 0.7710 -0.5695
vn -0.3492 0.0637 -0.9349
vn -0.0630 0.3489 -0.9350
vn 0.0101 -0.0101 -0.9999
vn -0.6162 0.0574 -0.7855
vn -0.3646 0.3419 -0.8661
vn -0.3001 -0.0083 -0.9539
vn -0.8299 0.0580 -0.5549
vn -0.6140 0.3294 -0.7173
vn -0.5878 -0.0000 -0.8090
vn -0.3433 0.3636 -0.8660
vn -0.0581 0.6170 -0.7848
vn 0.0079 0.3006 -0.9537
vn -0.3636 0.2662 -0.8927
vn -0.5526 0.4617 -0.6939
vn -0.2831 0.5719 -0.7699
vn -0.7785 0.3292 -0.5344
vn -0.5457 0.5487 -0.6333
vn -0.5695 0.2851 -0.7710
vn -0.9349 0.3492 -0.0637
vn -0.9350 0.0630 -0.3489
vn -0.9999 -0.0101 0.0101
vn -0.7855 0.6162 -0.0574
vn -0.8661 0.3646 -0.3419
vn -0.9539 0.3001 0.0083
vn -0.5549 0.8299 -0.0580
vn -0.7173 0.6140 -0.3294
vn -0.8090 0.5878 -0.0000
vn -0.8660 0.3433 -0.3636
vn -0.7848 0.0581 -0.6170
vn -0.9537 -0.0079 -0.3006
vn -0.8927 0.3636 -0.2662
vn -0.6939 0.5526 -0.4617
vn -0.7699 0.2831 -0.5719
vn -0.5344 0.7785 -0.3292
vn -0.6333 0.5457 -0.5487
vn -0.7710 0.5695 -0.2851
vn -0.5156 0.6844 -0.5155
vn -0.5155 0.5156 -0.6844
vn -0.6844 0.5155 -0.5156
vn 0.3492 -0.9349 0.0637
vn 0.0630 -0.9350 0.3489
vn -0.0101 -0.9999 -0.0101
vn 0.6162 -0.7855 0.0574
vn 0.3646 -0.8661 0.3419
vn 0.3001 -0.9539 -0.0083
vn 0.8299 -0.5549 0.0580
vn 0.6140 -0.7173 0.3294
vn 0.5878 -0.8090 -0.0000
vn 0.3433 -0.8660 0.3636
vn 0.0581 -0.7849 0.6170
vn -0.0079 -0.9537 0.3006
vn 0.3636 -0.8927 0.2662
vn 0.5526 -0.6939 0.4617
vn 0.2831 -0.7699 0.5719
vn 0.7785 -0.5344 0.3292
vn 0.5457 -0.6333 0.5487
vn 0.5695 -0.7710 0.2851
vn 0.9349 -0.0637 0.3492
vn 0.9350 -0.3489 0.0630
vn 0.9999 0.0101 -0.0101
vn 0.7855 -0.0574 0.6162
vn 0.8661 -0.3419 0.3646
vn 0.9539 0.0083 0.3001
vn 0.5549 -0.0580 0.8299
vn 0.7173 -0.3294 0.6140
vn 0.8090 -0.0000 0.5878
vn 0.8660 -0.3636 0.3433
vn 0.7849 -0.6170 0.0581
vn 0.9537 -0.3006 -0.0079
vn 0.8927 -0.2662 0.3636
vn 0.6939 -0.4617 0.5526
vn 0.7699 -0.5719 0.2831
vn 0.5344 -0.3292 0.7785
vn 0.6333 -0.5487 0.5457
vn 0.7710 -0.2851 0.5695
vn 0.0637 -0.3492 0.9349
vn 0.3489 -0.0630 0.9350
vn -0.0101 0.0101 0.9999
vn 0.0574 -0.6162 0.7855
vn 0.3419 -0.3646 0.8661
vn -0.0083 -0.3001 0.9539
vn 0.0580 -0.8299 0.5549
vn 0.3294 -0.6140 0.7173
vn -0.0000 -0.5878 0.8090
vn 0.3636 -0.3433 0.8660
vn 0.6170 -0.0581 0.7849
vn 0.3006 0.0079 0.9537
vn 0.2662 -0.3636 0.8927
vn 0.4617 -0.5526 0.6939
vn 0.5719 -0.2831 0.7699
vn 0.3292 -0.7785 0.5344
vn 0.5487 -0.5457 0.6333
vn 0.2851 -0.5695 0.7710
vn 0.5155 -0.6844 0.5156
vn 0.6844 -0.5156 0.5155
vn 0.5156 -0.5155 0.6844
vn 0.0637 0.9349 0.3492
vn 0.3489 0.9350 0.0630
vn -0.0101 0.9999 -0.0101
vn 0.0574 0.7855 0.6162
vn 0.3419 0.8661 0.3646
vn -0.0083 0.9539 0.3001
vn 0.0580 0.5549 0.8299
vn 0.3294 0.7173 0.6140
vn -0.0000 0.8090 0.5878
vn 0.3636 0.8660 0.3433
vn 0.6170 0.7848 0.0581
vn 0.3006 0.9537 -0.0079
vn 0.2662 0.8927 0.3636
vn 0.4617 0.6939 0.5526
vn 0.5719 0.7699 0.2831
vn 0.3292 0.5344 0.7785
vn 0.5487 0.6333 0.5457
vn 0.2851 0.7710 0.5695
vn 0.3492 0.0637 0.9349
vn 0.0630 0.3489 0.9350
vn -0.0101 -0.0101 0.9999
vn 0.6162 0.0574 0.7855
vn 0.3646 0.3419 0.8661
vn 0.3001 -0.0083 0.9539
vn 0.8299 0.0580 0.5549
vn 0.6140 0.3294 0.7173
vn 0.5878 -0.0000 0.8090
vn 0.3433 0.3636 0.8660
vn 0.0581 0.6170 0.7848
vn -0.0079 0.3006 0.9537
vn 0.3636 0.2662 0.8927
vn 0.5526 0.4617 0.6939
vn 0.2831 0.5719 0.7699
vn 0.7785 0.3292 0.5344
vn 0.5457 0.5487 0.6333
vn 0.5695 0.2851 0.7710
vn 0.9349 0.3492 0.0637
vn 0.9350 0.0630 0.3489
vn 0.9999 -0.0101 -0.0101
vn 0.7855 0.6162 0.0574
vn 0.8661 0.3646 0.3419
vn 0.9539 0.3001 -0.0083
vn 0.5549 0.8299 0.0580
vn 0.7173 0.6140 0.3294
vn 0.8090 0.5878 -0.0000
vn 0.8660 0.3433 0.3636
vn 0.7848 0.0581 0.6170
vn 0.9537 -0.0079 0.3006
vn 0.8927 0.3636 0.2662
vn 0.6939 0.5526 0.4617
vn 0.7699 0.2831 0.5719
vn 0.5344 0.7785 0.3292
vn 0.6333 0.5457 0.5487
vn 0.7710 0.5695 0.2851
vn 0.5156 0.6844 0.5155
vn 0.5155 0.5156 0.6844
vn 0.6844 0.5155 0.5156
vn 0.0637 -0.9349 -0.3492
vn 0.3489 -0.9350 -0.0630
vn -0.0101 -0.9999 0.0101
vn 0.0574 -0.7855 -0.6162
vn 0.3419 -0.8661 -0.3646
vn -0.0083 -0.9539 -0.3001
vn 0.0580 -0.5549 -0.8299
vn 0.3294 -0.7173 -0.6140
vn -0.0000 -0.8090 -0.5878
vn 0.3636 -0.8660 -0.3433
vn 0.6170 -0.7848 -0.0581
vn 0.3006 -0.9537 0.0079
vn 0.2662 -0.8927 -0.3636
vn 0.4617 -0.6939 -0.5526
vn 0.5719 -0.7699 -0.2831
vn 0.3292 -0.5344 -0.7785
vn 0.5487 -0.6333 -0.5457
vn 0.2851 -0.7710 -0.5695
vn 0.3492 -0.0637 -0.9349
vn 0.0630 -0.3489 -0.9350
vn -0.0101 0.0101 -0.9999
vn 0.6162 -0.0574 -0.7855
vn 0.3646 -0.3419 -0.8661
vn 0.3001 0.0083 -0.9539
vn 0.8299 -0.0580 -0.5549
vn 0.6140 -0.3294 -0.7173
vn 0.5878 -0.0000 -0.8090
vn 0.3433 -0.3636 -0.8660
vn 0.0581 -0.6170 -0.7848
vn -0.0079 -0.3006 -0.9537
vn 0.3636 -0.2662 -0.8927
vn 0.5526 -0.4617 -0.6939
vn 0.2831 -0.5719 -0.7699
vn 0.7785 -0.3292 -0.5344
vn 0.5457 -0.5487 -0.6333
vn 0.5695 -0.2851 -0.7710
vn 0.9349 -0.3492 -0.0637
vn 0.9350 -0.0630 -0.3489
vn 0.9999 0.0101 0.0101
vn 0.7855 -0.6162 -0.0574
vn 0.8661 -0.3646 -0.3419
vn 0.9539 -0.3001 0.0083
vn 0.5549 -0.8299 -0.0580
vn 0.7173 -0.6140 -0.3294
vn 0.8090 -0.5878 -0.0000
vn 0.8660 -0.3433 -0.3636
vn 0.7848 -0.0581 -0.6170
vn 0.9537 0.0079 -0.3006
vn 0.8927 -0.3636 -0.2662
vn 0.6939 -0.5526 -0.4617
vn 0.7699 -0.2831 -0.5719
vn 0.5344 -0.7785 -0.3292
vn 0.6333 -0.5457 -0.5487
vn 0.7710 -0.5695 -0.2851
vn 0.5156 -0.6844 -0.5155
vn 0.5155 -0.5156 -0.6844
vn 0.6844 -0.5155 -0.5156
vn 0.3492 0.9349 -0.0637
vn 0.0630 0.9350 -0.3489
vn -0.0101 0.9999 0.0101
vn 0.6162 0.7855 -0.0574
vn 0.3646 0.8661 -0.3419
vn 0.3001 0.9539 0.0083
vn 0.8299 0.5549 -0.0580
vn 0.6140 0.7173 -0.3294
vn 0.5878 0.8090 -0.0000
vn 0.3433 0.8660 -0.3636
vn 0.0581 0.7849 -0.6170
vn -0.0079 0.9537 -0.3006
vn 0.3636 0.8927 -0.2662
vn 0.5526 0.6939 -0.4617
vn 0.2831 0.7699 -0.5719
vn 0.7785 0.5344 -0.3292
vn 0.5457 0.6333 -0.5487
vn 0.5695 0.7710 -0.2851
vn 0.9349 0.0637 -0.3492
vn 0.9350 0.3489 -0.0630
vn 0.9999 -0.0101 0.0101
vn 0.7855 0.0574 -0.6162
vn 0.8661 0.3419 -0.3646
vn 0.9539 -0.0083 -0.3001
vn 0.5549 0.0580 -0.8299
vn 0.7173 0.3294 -0.6140
vn 0.8090 -0.0000 -0.5878
vn 0.8660 0.3636 -0.3433
vn 0.7849 0.6170 -0.0581
vn 0.9537 0.3006 0.0079
vn 0.8927 0.2662 -0.3636
vn 0.6939 0.4617 -0.5526
vn 0.7699 0.5719 -0.2831
vn 0.5344 0.3292 -0.7785
vn 0.6333 0.5487 -0.5457
vn 0.7710 0.2851 -0.5695
vn 0.0637 0.3492 -0.9349
vn 0.3489 0.0630 -0.9350
vn -0.0101 -0.0101 -0.9999
vn 0.0574 0.6162 -0.7855
vn 0.3419 0.3646 -0.8661
vn -0.0083 0.3001 -0.9539
vn 0.0580 0.8299 -0.5549
vn 0.3294 0.6140 -0.7173
vn -0.0000 0.5878 -0.8090
vn 0.3636 0.3433 -0.8660
vn 0.6170 0.0581 -0.7849
vn 0.3006 -0.0079 -0.9537
vn 0.2662 0.3636 -0.8927
vn 0.4617 0.5526 -0.6939
vn 0.5719 0.2831 -0.7699
vn 0.3292 0.7785 -0.5344
vn 0.5487 0.5457 -0.6333
vn 0.2851 0.5695 -0.7710
vn 0.5155 0.6844 -0.5156
vn 0.6844 0.5156 -0.5155
vn 0.5156 0.5155 -0.6844
vn -0.0001 -1.0000 0.0034
vn -0.2891 -0.9542 0.0767
vn -0.3090 -0.9511 -0.0000
vn -0.3091 -0.9510 0.0033
vn -0.5698 -0.8182 0.0767
vn -0.5877 -0.8091 -0.0000
vn -0.6020 -0.7948 0.0767
vn -0.8090 -0.5878 0.0033
vn -0.8091 -0.5877 0.0033
vn -0.9419 -0.3270 0.0767
vn -0.9510 -0.3091 -0.0000
vn -0.9542 -0.2891 0.0767
vn -1.0000 -0.0001 0.0033
vn -0.9511 -0.3090 -0.0000
vn -0.0001 0.0034 1.0000
vn -0.2891 0.0767 0.9542
vn -0.3090 -0.0000 0.9511
vn -0.3270 0.0767 0.9419
vn -0.5877 0.0033 0.8091
vn -0.3091 -0.0000 0.9510
vn -0.6020 0.0767 0.7948
vn -0.8090 0.0033 0.5878
vn -0.8091 0.0033 0.5877
vn -0.9419 0.0767 0.3270
vn -0.9510 -0.0000 0.3091
vn -0.9542 0.0767 0.2891
vn -1.0000 0.0033 0.0001
vn -0.9511 -0.0000 0.3090
vn -0.0001 1.0000 -0.0034
vn -0.2891 0.9542 -0.0767
vn -0.3090 0.9511 -0.0000
vn -0.3091 0.9510 -0.0033
vn -0.5698 0.8182 -0.0767
vn -0.5877 0.8091 -0.0000
vn -0.6020 0.7948 -0.0767
vn -0.8090 0.5878 -0.0033
vn -0.8091 0.5877 -0.0033
vn -0.9419 0.3270 -0.0767
vn -0.9510 0.3091 -0.0000
vn -0.9542 0.2891 -0.0767
vn -1.0000 0.0001 -0.0033
vn -0.9511 0.3090 -0.0000
vn -0.0001 -0.0034 -1.0000
vn -0.2891 -0.0767 -0.9542
vn -0.3090 -0.0000 -0.9511
vn -0.3270 -0.0767 -0.9419
vn -0.5877 -0.0033 -0.8091
vn -0.3091 -0.0000 -0.9510
vn -0.6020 -0.0767 -0.7948
vn -0.8090 -0.0033 -0.5878
vn -0.8091 -0.0033 -0.5877
vn -0.9419 -0.0767 -0.3270
vn -0.9510 -0.0000 -0.3091
vn -0.9542 -0.0767 -0.2891
vn -1.0000 -0.0033 -0.0001
vn -0.9511 -0.0000 -0.3090
vn -0.0034 -1.0000 -0.0001
vn -0.0767 -0.9542 -0.2891
vn -0.0000 -0.9511 -0.3090
vn -0.0033 -0.9510 -0.3091
vn -0.0767 -0.8182 -0.5698
vn -0.0000 -0.8091 -0.5877
vn -0.0767 -0.7948 -0.6020
vn -0.0033 -0.5878 -0.8090
vn -0.0033 -0.5877 -0.8091
vn -0.0767 -0.3270 -0.9419
vn -0.0000 -0.3091 -0.9510
vn -0.0767 -0.2891 -0.9542
vn -0.0033 -0.0001 -1.0000
vn -0.0000 -0.3090 -0.9511
vn 0.0034 1.0000 -0.0001
vn 0.0767 0.9542 -0.2891
vn -0.0000 0.9511 -0.3090
vn 0.0033 0.9510 -0.3091
vn 0.0767 0.8182 -0.5698
vn -0.0000 0.8091 -0.5877
vn 0.0767 0.7948 -0.6020
vn 0.0033 0.5878 -0.8090
vn 0.0033 0.5877 -0.8091
vn 0.0767 0.3270 -0.9419
vn -0.0000 0.3091 -0.9510
vn 0.0767 0.2891 -0.9542
vn 0.0033 0.0001 -1.0000
vn -0.0000 0.3090 -0.9511
vn 1.0000 -0.0034 -0.0001
vn 0.9542 -0.0767 -0.2891
vn 0.9511 -0.0000 -0.3090
vn 0.9419 -0.0767 -0.3270
vn 0.8091 -0.0033 -0.5877
vn 0.9510 -0.0000 -0.3091
vn 0.7948 -0.0767 -0.6020
vn 0.5878 -0.0033 -0.8090
vn 0.5877 -0.0033 -0.8091
vn 0.3270 -0.0767 -0.9419
vn 0.3091 -0.0000 -0.9510
vn 0.2891 -0.0767 -0.9542
vn 0.0001 -0.0033 -1.0000
vn 0.3090 -0.0000 -0.9511
vn 0.0001 -1.0000 -0.0034
vn 0.2891 -0.9542 -0.0767
vn 0.3090 -0.9511 -0.0000
vn 0.3091 -0.9510 -0.0033
vn 0.5698 -0.8182 -0.0767
vn 0.5877 -0.8091 -0.0000
vn 0.6020 -0.7948 -0.0767
vn 0.8090 -0.5878 -0.0033
vn 0.8091 -0.5877 -0.0033
vn 0.9419 -0.3270 -0.0767
vn 0.9510 -0.3091 -0.0000
vn 0.9542 -0.2891 -0.0767
vn 1.0000 -0.0001 -0.0033
vn 0.9511 -0.3090 -0.0000
vn 0.0001 1.0000 0.0034
vn 0.2891 0.9542 0.0767
vn 0.3090 0.9511 -0.0000
vn 0.3091 0.9510 0.0033
vn 0.5698 0.8182 0.0767
vn 0.5877 0.8091 -0.0000
vn 0.6020 0.7948 0.0767
vn 0.8090 0.5878 0.0033
vn 0.8091 0.5877 0.0033
vn 0.9419 0.3270 0.0767
vn 0.9510 0.3091 -0.0000
vn 0.9542 0.2891 0.0767
vn 1.0000 0.0001 0.0033
vn 0.9511 0.3090 -0.0000
vn 0.0001 -0.0034 1.0000
vn 0.2891 -0.0767 0.9542
vn 0.3090 -0.0000 0.9511
vn 0.3270 -0.0767 0.9419
vn 0.5877 -0.0033 0.8091
vn 0.3091 -0.0000 0.9510
vn 0.6020 -0.0767 0.7948
vn 0.8090 -0.0033 0.5878
vn 0.8091 -0.0033 0.5877
vn 0.9419 -0.0767 0.3270
vn 0.9510 -0.0000 0.3091
vn 0.9542 -0.0767 0.2891
vn 1.0000 -0.0033 0.0001
vn 0.9511 -0.0000 0.3090
vn 0.0034 -1.0000 0.0001
vn 0.0767 -0.9542 0.2891
vn -0.0000 -0.9511 0.3090
vn 0.0033 -0.9510 0.3091
vn 0.0767 -0.8182 0.5698
vn -0.0000 -0.8091 0.5877
vn 0.0767 -0.7948 0.6020
vn 0.0033 -0.5878 0.8090
vn 0.0033 -0.5877 0.8091
vn 0.0767 -0.3270 0.9419
vn -0.0000 -0.3091 0.9510
vn 0.0767 -0.2891 0.9542
vn 0.0033 -0.0001 1.0000
vn -0.0000 -0.3090 0.9511
vn -0.0034 1.0000 0.0001
vn -0.0767 0.9542 0.2891
vn -0.0000 0.9511 0.3090
vn -0.0033 0.9510 0.3091
vn -0.0767 0.8182 0.5698
vn -0.0000 0.8091 0.5877
vn -0.0767 0.7948 0.6020
vn -0.0033 0.5878 0.8090
vn -0.0033 0.5877 0.8091
vn -0.0767 0.3270 0.9419
vn -0.0000 0.3091 0.9510
vn -0.0767 0.2891 0.9542
vn -0.0033 0.0001 1.0000
vn -0.0000 0.3090 0.9511
vn -0.0000 -1.0000 -0.0000
vn 0.0344 -0.9691 0.2443
vn -0.3153 -0.8948 0.3162
vn -0.2442 -0.9691 -0.0345
vn 0.0378 -0.8465 0.5310
vn -0.2937 -0.7623 0.5768
vn -0.2443 -0.9295 0.2764
vn 0.0500 -0.6427 0.7645
vn -0.2859 -0.5698 0.7705
vn -0.2155 -0.8110 0.5439
vn -0.2753 -0.9295 0.2452
vn -0.5765 -0.7625 0.2937
vn -0.5300 -0.8472 -0.0384
vn -0.3621 -0.8931 0.2670
vn -0.2827 -0.7701 0.5718
vn -0.5530 -0.6942 0.4608
vn -0.2437 -0.6277 0.7393
vn -0.5158 -0.5151 0.6845
vn -0.4564 -0.7327 0.5048
vn -0.2443 0.0344 0.9691
vn -0.3162 -0.3153 0.8948
vn 0.0345 -0.2442 0.9691
vn -0.5310 0.0378 0.8465
vn -0.5768 -0.2937 0.7623
vn -0.2764 -0.2443 0.9295
vn -0.7645 0.0500 0.6427
vn -0.7705 -0.2859 0.5698
vn -0.5439 -0.2155 0.8110
vn -0.2452 -0.2753 0.9295
vn -0.2937 -0.5765 0.7625
vn 0.0384 -0.5300 0.8472
vn -0.2670 -0.3621 0.8931
vn -0.5718 -0.2827 0.7701
vn -0.4608 -0.5530 0.6942
vn -0.7393 -0.2437 0.6277
vn -0.6845 -0.5158 0.5151
vn -0.5048 -0.4564 0.7327
vn -0.9691 -0.2443 -0.0344
vn -0.8948 -0.3162 0.3153
vn -0.9691 0.0345 0.2442
vn -0.8465 -0.5310 -0.0378
vn -0.7623 -0.5768 0.2937
vn -0.9295 -0.2764 0.2443
vn -0.6427 -0.7645 -0.0500
vn -0.5698 -0.7705 0.2859
vn -0.8110 -0.5439 0.2155
vn -0.9295 -0.2452 0.2753
vn -0.7625 -0.2937 0.5765
vn -0.8472 0.0384 0.5300
vn -0.8931 -0.2670 0.3621
vn -0.7701 -0.5718 0.2827
vn -0.6942 -0.4608 0.5530
vn -0.6277 -0.7393 0.2437
vn -0.5151 -0.6845 0.5158
vn -0.7327 -0.5048 0.4564
vn 0.0344 0.2443 0.9691
vn -0.3153 0.3162 0.8948
vn -0.2442 -0.0345 0.9691
vn 0.0378 0.5310 0.8465
vn -0.2937 0.5768 0.7623
vn -0.2443 0.2764 0.9295
vn 0.0500 0.7645 0.6427
vn -0.2859 0.7705 0.5698
vn -0.2155 0.5439 0.8110
vn -0.2753 0.2452 0.9295
vn -0.5765 0.2937 0.7625
vn -0.5300 -0.0384 0.8472
vn -0.3621 0.2670 0.8931
vn -0.2827 0.5718 0.7701
vn -0.5530 0.4608 0.6942
vn -0.2437 0.7393 0.6277
vn -0.5158 0.6845 0.5151
vn -0.4564 0.5048 0.7327
vn -0.2443 0.9691 -0.0344
vn -0.3162 0.8948 0.3153
vn 0.0345 0.9691 0.2442
vn -0.5310 0.8465 -0.0378
vn -0.5768 0.7623 0.2937
vn -0.2764 0.9295 0.2443
vn -0.7645 0.6427 -0.0500
vn -0.7705 0.5698 0.2859
vn -0.5439 0.8110 0.2155
vn -0.2452 0.9295 0.2753
vn -0.2937 0.7625 0.5765
vn 0.0384 0.8472 0.5300
vn -0.2670 0.8931 0.3621
vn -0.5718 0.7701 0.2827
vn -0.4608 0.6942 0.5530
vn -0.7393 0.6277 0.2437
vn -0.6845 0.5151 0.5158
vn -0.5048 0.7327 0.4564
vn -0.9691 -0.0344 0.2443
vn -0.8948 0.3153 0.3162
vn -0.9691 0.2442 -0.0345
vn -0.8465 -0.0378 0.5310
vn -0.7623 0.2937 0.5768
vn -0.9295 0.2443 0.2764
vn -0.6427 -0.0500 0.7645
vn -0.5698 0.2859 0.7705
vn -0.8110 0.2155 0.5439
vn -0.9295 0.2753 0.2452
vn -0.7625 0.5765 0.2937
vn -0.8472 0.5300 -0.0384
vn -0.8931 0.3621 0.2670
vn -0.7701 0.2827 0.5718
vn -0.6942 0.5530 0.4608
vn -0.6277 0.2437 0.7393
vn -0.5151 0.5158 0.6845
vn -0.7327 0.4564 0.5048
vn -0.2443 -0.9691 0.0344
vn -0.3162 -0.8948 -0.3153
vn 0.0345 -0.9691 -0.2442
vn -0.5310 -0.8465 0.0378
vn -0.5768 -0.7623 -0.2937
vn -0.2764 -0.9295 -0.2443
vn -0.7645 -0.6427 0.0500
vn -0.7705 -0.5698 -0.2859
vn -0.5439 -0.8110 -0.2155
vn -0.2452 -0.9295 -0.2753
vn -0.2937 -0.7625 -0.5765
vn 0.0384 -0.8472 -0.5300
vn -0.2670 -0.8931 -0.3621
vn -0.5718 -0.7701 -0.2827
vn -0.4608 -0.6942 -0.5530
vn -0.7393 -0.6277 -0.2437
vn -0.6845 -0.5151 -0.5158
vn -0.5048 -0.7327 -0.4564
vn -0.9691 0.0344 -0.2443
vn -0.8948 -0.3153 -0.3162
vn -0.9691 -0.2442 0.0345
vn -0.8465 0.0378 -0.5310
vn -0.7623 -0.2937 -0.5768
vn -0.9295 -0.2443 -0.2764
vn -0.6427 0.0500 -0.7645
vn -0.5698 -0.2859 -0.7705
vn -0.8110 -0.2155 -0.5439
vn -0.9295 -0.2753 -0.2452
vn -0.7625 -0.5765 -0.2937
vn -0.8472 -0.5300 0.0384
vn -0.8931 -0.3621 -0.2670
vn -0.7701 -0.2827 -0.5718
vn -0.6942 -0.5530 -0.4608
vn -0.6277 -0.2437 -0.7393
vn -0.5151 -0.5158 -0.6845
vn -0.7327 -0.4564 -0.5048
vn 0.0344 -0.2443 -0.9691
vn -0.3153 -0.3162 -0.8948
vn -0.2442 0.0345 -0.9691
vn 0.0378 -0.5310 -0.8465
vn -0.2937 -0.5768 -0.7623
vn -0.2443 -0.2764 -0.9295
vn 0.0500 -0.7645 -0.6427
vn -0.2859 -0.7705 -0.5698
vn -0.2155 -0.5439 -0.8110
vn -0.2753 -0.2452 -0.9295
vn -0.5765 -0.2937 -0.7625
vn -0.5300 0.0384 -0.8472
vn -0.3621 -0.2670 -0.8931
vn -0.2827 -0.5718 -0.7701
vn -0.5530 -0.4608 -0.6942
vn -0.2437 -0.7393 -0.6277
vn -0.5158 -0.6845 -0.5151
vn -0.4564 -0.5048 -0.7327
vn 0.0344 0.9691 -0.2443
vn -0.3153 0.8948 -0.3162
vn -0.2442 0.9691 0.0345
vn 0.0378 0.8465 -0.5310
vn -0.2937 0.7623 -0.5768
vn -0.2443 0.9295 -0.2764
vn 0.0500 0.6427 -0.7645
vn -0.2859 0.5698 -0.7705
vn -0.2155 0.8110 -0.5439
vn -0.2753 0.9295 -0.2452
vn -0.5765 0.7625 -0.2937
vn -0.5300 0.8472 0.0384
vn -0.3621 0.8931 -0.2670
vn -0.2827 0.7701 -0.5718
vn -0.5530 0.6942 -0.4608
vn -0.2437 0.6277 -0.7393
vn -0.5158 0.5151 -0.6845
vn -0.4564 0.7327 -0.5048
vn -0.2443 -0.0344 -0.9691
vn -0.3162 0.3153 -0.8948
vn 0.0345 0.2442 -0.9691
vn -0.5310 -0.0378 -0.8465
vn -0.5768 0.2937 -0.7623
vn -0.2764 0.2443 -0.9295
vn -0.7645 -0.0500 -0.6427
vn -0.7705 0.2859 -0.5698
vn -0.5439 0.2155 -0.8110
vn -0.2452 0.2753 -0.9295
vn -0.2937 0.5765 -0.7625
vn 0.0384 0.5300 -0.8472
vn -0.2670 0.3621 -0.8931
vn -0.5718 0.2827 -0.7701
vn -0.4608 0.5530 -0.6942
vn -0.7393 0.2437 -0.6277
vn -0.6845 0.5158 -0.5151
vn -0.5048 0.4564 -0.7327
vn -0.9691 0.2443 0.0344
vn -0.8948 0.3162 -0.3153
vn -0.9691 -0.0345 -0.2442
vn -0.8465 0.5310 0.0378
vn -0.7623 0.5768 -0.2937
vn -0.9295 0.2764 -0.2443
vn -0.6427 0.7645 0.0500
vn -0.5698 0.7705 -0.2859
vn -0.8110 0.5439 -0.2155
vn -0.9295 0.2452 -0.2753
vn -0.7625 0.2937 -0.5765
vn -0.8472 -0.0384 -0.5300
vn -0.8931 0.2670 -0.3621
vn -0.7701 0.5718 -0.2827
vn -0.6942 0.4608 -0.5530
vn -0.6277 0.7393 -0.2437
vn -0.5151 0.6845 -0.5158
vn -0.7327 0.5048 -0.4564
vn 0.2443 -0.9691 -0.0344
vn 0.3162 -0.8948 0.3153
vn -0.0345 -0.9691 0.2442
vn 0.5310 -0.8465 -0.0378
vn 0.5768 -0.7623 0.2937
vn 0.2764 -0.9295 0.2443
vn 0.7645 -0.6427 -0.0500
vn 0.7705 -0.5698 0.2859
vn 0.5439 -0.8110 0.2155
vn 0.2452 -0.9295 0.2753
vn 0.2937 -0.7625 0.5765
vn -0.0384 -0.8472 0.5300
vn 0.2670 -0.8931 0.3621
vn 0.5718 -0.7701 0.2827
vn 0.4608 -0.6942 0.5530
vn 0.7393 -0.6277 0.2437
vn 0.6845 -0.5151 0.5158
vn 0.5048 -0.7327 0.4564
vn 0.9691 0.0344 0.2443
vn 0.8948 -0.3153 0.3162
vn 0.9691 -0.2442 -0.0345
vn 0.8465 0.0378 0.5310
vn 0.7623 -0.2937 0.5768
vn 0.9295 -0.2443 0.2764
vn 0.6427 0.0500 0.7645
vn 0.5698 -0.2859 0.7705
vn 0.8110 -0.2155 0.5439
vn 0.9295 -0.2753 0.2452
vn 0.7625 -0.5765 0.2937
vn 0.8472 -0.5300 -0.0384
vn 0.8931 -0.3621 0.2670
vn 0.7701 -0.2827 0.5718
vn 0.6942 -0.5530 0.4608
vn 0.6277 -0.2437 0.7393
vn 0.5151 -0.5158 0.6845
vn 0.7327 -0.4564 0.5048
vn -0.0344 -0.2443 0.9691
vn 0.3153 -0.3162 0.8948
vn 0.2442 0.0345 0.9691
vn -0.0378 -0.5310 0.8465
vn 0.2937 -0.5768 0.7623
vn 0.2443 -0.2764 0.9295
vn -0.0500 -0.7645 0.6427
vn 0.2859 -0.7705 0.5698
vn 0.2155 -0.5439 0.8110
vn 0.2753 -0.2452 0.9295
vn 0.5765 -0.2937 0.7625
vn 0.5300 0.0384 0.8472
vn 0.3621 -0.2670 0.8931
vn 0.2827 -0.5718 0.7701
vn 0.5530 -0.4608 0.6942
vn 0.2437 -0.7393 0.6277
vn 0.5158 -0.6845 0.5151
vn 0.4564 -0.5048 0.7327
vn -0.0344 0.9691 0.2443
vn 0.3153 0.8948 0.3162
vn 0.2442 0.9691 -0.0345
vn -0.0378 0.8465 0.5310
vn 0.2937 0.7623 0.5768
vn 0.2443 0.9295 0.2764
vn -0.0500 0.6427 0.7645
vn 0.2859 0.5698 0.7705
vn 0.2155 0.8110 0.5439
vn 0.2753 0.9295 0.2452
vn 0.5765 0.7625 0.2937
vn 0.5300 0.8472 -0.0384
vn 0.3621 0.8931 0.2670
vn 0.2827 0.7701 0.5718
vn 0.5530 0.6942 0.4608
vn 0.2437 0.6277 0.7393
vn 0.5158 0.5151 0.6845
vn 0.4564 0.7327 0.5048
vn 0.2443 -0.0344 0.9691
vn 0.3162 0.3153 0.8948
vn -0.0345 0.2442 0.9691
vn 0.5310 -0.0378 0.8465
vn 0.5768 0.2937 0.7623
vn 0.2764 0.2443 0.9295
vn 0.7645 -0.0500 0.6427
vn 0.7705 0.2859 0.5698
vn 0.5439 0.2155 0.8110
vn 0.2452 0.2753 0.9295
vn 0.2937 0.5765 0.7625
vn -0.0384 0.5300 0.8472
vn 0.2670 0.3621 0.8931
vn 0.5718 0.2827 0.7701
vn 0.4608 0.5530 0.6942
vn 0.7393 0.2437 0.6277
vn 0.6845 0.5158 0.5151
vn 0.5048 0.4564 0.7327
vn 0.9691 0.2443 -0.0344
vn 0.8948 0.3162 0.3153
vn 0.9691 -0.0345 0.2442
vn 0.8465 0.5310 -0.0378
vn 0.7623 0.5768 0.2937
vn 0.9295 0.2764 0.2443
vn 0.6427 0.7645 -0.0500
vn 0.5698 0.7705 0.2859
vn 0.8110 0.5439 0.2155
vn 0.9295 0.2452 0.2753
vn 0.7625 0.2937 0.5765
vn 0.8472 -0.0384 0.5300
vn 0.8931 0.2670 0.3621
vn 0.7701 0.5718 0.2827
vn 0.6942 0.4608 0.5530
vn 0.6277 0.7393 0.2437
vn 0.5151 0.6845 0.5158
vn 0.7327 0.5048 0.4564
vn -0.0344 -0.9691 -0.2443
vn 0.3153 -0.8948 -0.3162
vn 0.2442 -0.9691 0.0345
vn -0.0378 -0.8465 -0.5310
vn 0.2937 -0.7623 -0.5768
vn 0.2443 -0.9295 -0.2764
vn -0.0500 -0.6427 -0.7645
vn 0.2859 -0.5698 -0.7705
vn 0.2155 -0.8110 -0.5439
vn 0.2753 -0.9295 -0.2452
vn 0.5765 -0.7625 -0.2937
vn 0.5300 -0.8472 0.0384
vn 0.3621 -0.8931 -0.2670
vn 0.2827 -0.7701 -0.5718
vn 0.5530 -0.6942 -0.4608
vn 0.2437 -0.6277 -0.7393
vn 0.5158 -0.5151 -0.6845
vn 0.4564 -0.7327 -0.5048
vn 0.2443 0.0344 -0.9691
vn 0.3162 -0.3153 -0.8948
vn -0.0345 -0.2442 -0.9691
vn 0.5310 0.0378 -0.8465
vn 0.5768 -0.2937 -0.7623
vn 0.2764 -0.2443 -0.9295
vn 0.7645 0.0500 -0.6427
vn 0.7705 -0.2859 -0.5698
vn 0.5439 -0.2155 -0.8110
vn 0.2452 -0.2753 -0.9295
vn 0.2937 -0.5765 -0.7625
vn -0.0384 -0.5300 -0.8472
vn 0.2670 -0.3621 -0.8931
vn 0.5718 -0.2827 -0.7701
vn 0.4608 -0.5530 -0.6942
vn 0.7393 -0.2437 -0.6277
vn 0.6845 -0.5158 -0.5151
vn 0.5048 -0.4564 -0.7327
vn 0.9691 -0.2443 0.0344
vn 0.8948 -0.3162 -0.3153
vn 0.9691 0.0345 -0.2442
vn 0.8465 -0.5310 0.0378
vn 0.7623 -0.5768 -0.2937
vn 0.9295 -0.2764 -0.2443
vn 0.6427 -0.7645 0.0500
vn 0.5698 -0.7705 -0.2859
vn 0.8110 -0.5439 -0.2155
vn 0.9295 -0.2452 -0.2753
vn 0.7625 -0.2937 -0.5765
vn 0.8472 0.0384 -0.5300
vn 0.8931 -0.2670 -0.3621
vn 0.7701 -0.5718 -0.2827
vn 0.6942 -0.4608 -0.5530
vn 0.6277 -0.7393 -0.2437
vn 0.5151 -0.6845 -0.5158
vn 0.7327 -0.5048 -0.4564
vn 0.2443 0.9691 0.0344
vn 0.3162 0.8948 -0.3153
vn -0.0345 0.9691 -0.2442
vn 0.5310 0.8465 0.0378
vn 0.5768 0.7623 -0.2937
vn 0.2764 0.9295 -0.2443
vn 0.7645 0.6427 0.0500
vn 0.7705 0.5698 -0.2859
vn 0.5439 0.8110 -0.2155
vn 0.2452 0.9295 -0.2753
vn 0.2937 0.7625 -0.5765
vn -0.0384 0.8472 -0.5300
vn 0.2670 0.8931 -0.3621
vn 0.5718 0.7701 -0.2827
vn 0.4608 0.6942 -0.5530
vn 0.7393 0.6277 -0.2437
vn 0.6845 0.5151 -0.5158
vn 0.5048 0.7327 -0.4564
vn 0.9691 -0.0344 -0.2443
vn 0.8948 0.3153 -0.3162
vn 0.9691 0.2442 0.0345
vn 0.8465 -0.0378 -0.5310
vn 0.7623 0.2937 -0.5768
vn 0.9295 0.2443 -0.2764
vn 0.6427 -0.0500 -0.7645
vn 0.5698 0.2859 -0.7705
vn 0.8110 0.2155 -0.5439
vn 0.9295 0.2753 -0.2452
vn 0.7625 0.5765 -0.2937
vn 0.8472 0.5300 0.0384
vn 0.8931 0.3621 -0.2670
vn 0.7701 0.2827 -0.5718
vn 0.6942 0.5530 -0.4608
vn 0.6277 0.2437 -0.7393
vn 0.5151 0.5158 -0.6845
vn 0.7327 0.4564 -0.5048
vn -0.0344 0.2443 -0.9691
vn 0.3153 0.3162 -0.8948
vn 0.2442 -0.0345 -0.9691
vn -0.0378 0.5310 -0.8465
vn 0.2937 0.5768 -0.7623
vn 0.2443 0.2764 -0.9295
vn -0.0500 0.7645 -0.6427
vn 0.2859 0.7705 -0.5698
vn 0.2155 0.5439 -0.8110
vn 0.2753 0.2452 -0.9295
vn 0.5765 0.2937 -0.7625
vn 0.5300 -0.0384 -0.8472
vn 0.3621 0.2670 -0.8931
vn 0.2827 0.5718 -0.7701
vn 0.5530 0.4608 -0.6942
vn 0.2437 0.7393 -0.6277
vn 0.5158 0.6845 -0.5151
vn 0.4564 0.5048 -0.7327
vn -0.0199 -0.9969 -0.0768
vn -0.3089 -0.9511 -0.0033
vn -0.3270 -0.9419 -0.0767
vn -0.3091 -0.9510 -0.0000
vn -0.5877 -0.8091 -0.0033
vn -0.5878 -0.8090 -0.0033
vn -0.7948 -0.6020 -0.0767
vn -0.8182 -0.5698 -0.0767
vn -0.8091 -0.5877 -0.0000
vn -0.9510 -0.3091 -0.0033
vn -0.9511 -0.3089 -0.0033
vn -0.9969 -0.0199 -0.0768
vn -0.0199 -0.0768 0.9969
vn -0.3089 -0.0033 0.9511
vn -0.3091 -0.0033 0.9510
vn -0.5877 -0.0000 0.8091
vn -0.5698 -0.0767 0.8182
vn -0.5878 -0.0033 0.8090
vn -0.7948 -0.0767 0.6020
vn -0.8182 -0.0767 0.5698
vn -0.8091 -0.0000 0.5877
vn -0.9510 -0.0033 0.3091
vn -0.9511 -0.0033 0.3089
vn -0.9969 -0.0768 0.0199
vn -0.0199 0.9969 0.0768
vn -0.3089 0.9511 0.0033
vn -0.3270 0.9419 0.0767
vn -0.3091 0.9510 -0.0000
vn -0.5877 0.8091 0.0033
vn -0.5878 0.8090 0.0033
vn -0.7948 0.6020 0.0767
vn -0.8182 0.5698 0.0767
vn -0.8091 0.5877 -0.0000
vn -0.9510 0.3091 0.0033
vn -0.9511 0.3089 0.0033
vn -0.9969 0.0199 0.0768
vn -0.0199 0.0768 -0.9969
vn -0.3089 0.0033 -0.9511
vn -0.3091 0.0033 -0.9510
vn -0.5877 -0.0000 -0.8091
vn -0.5698 0.0767 -0.8182
vn -0.5878 0.0033 -0.8090
vn -0.7948 0.0767 -0.6020
vn -0.8182 0.0767 -0.5698
vn -0.8091 -0.0000 -0.5877
vn -0.9510 0.0033 -0.3091
vn -0.9511 0.0033 -0.3089
vn -0.9969 0.0768 -0.0199
vn 0.0768 -0.9969 -0.0199
vn 0.0033 -0.9511 -0.3089
vn 0.0767 -0.9419 -0.3270
vn -0.0000 -0.9510 -0.3091
vn 0.0033 -0.8091 -0.5877
vn 0.0033 -0.8090 -0.5878
vn 0.0767 -0.6020 -0.7948
vn 0.0767 -0.5698 -0.8182
vn -0.0000 -0.5877 -0.8091
vn 0.0033 -0.3091 -0.9510
vn 0.0033 -0.3089 -0.9511
vn 0.0768 -0.0199 -0.9969
vn -0.0768 0.9969 -0.0199
vn -0.0033 0.9511 -0.3089
vn -0.0767 0.9419 -0.3270
vn -0.0000 0.9510 -0.3091
vn -0.0033 0.8091 -0.5877
vn -0.0033 0.8090 -0.5878
vn -0.0767 0.6020 -0.7948
vn -0.0767 0.5698 -0.8182
vn -0.0000 0.5877 -0.8091
vn -0.0033 0.3091 -0.9510
vn -0.0033 0.3089 -0.9511
vn -0.0768 0.0199 -0.9969
vn 0.9969 0.0768 -0.0199
vn 0.9511 0.0033 -0.3089
vn 0.9510 0.0033 -0.3091
vn 0.8091 -0.0000 -0.5877
vn 0.8182 0.0767 -0.5698
vn 0.8090 0.0033 -0.5878
vn 0.6020 0.0767 -0.7948
vn 0.5698 0.0767 -0.8182
vn 0.5877 -0.0000 -0.8091
vn 0.3091 0.0033 -0.9510
vn 0.3089 0.0033 -0.9511
vn 0.0199 0.0768 -0.9969
vn 0.0199 -0.9969 0.0768
vn 0.3089 -0.9511 0.0033
vn 0.3270 -0.9419 0.0767
vn 0.3091 -0.9510 -0.0000
vn 0.5877 -0.8091 0.0033
vn 0.5878 -0.8090 0.0033
vn 0.7948 -0.6020 0.0767
vn 0.8182 -0.5698 0.0767
vn 0.8091 -0.5877 -0.0000
vn 0.9510 -0.3091 0.0033
vn 0.9511 -0.3089 0.0033
vn 0.9969 -0.0199 0.0768
vn 0.0199 0.9969 -0.0768
vn 0.3089 0.9511 -0.0033
vn 0.3270 0.9419 -0.0767
vn 0.3091 0.9510 -0.0000
vn 0.5877 0.8091 -0.0033
vn 0.5878 0.8090 -0.0033
vn 0.7948 0.6020 -0.0767
vn 0.8182 0.5698 -0.0767
vn 0.8091 0.5877 -0.0000
vn 0.9510 0.3091 -0.0033
vn 0.9511 0.3089 -0.0033
vn 0.9969 0.0199 -0.0768
vn 0.0199 0.0768 0.9969
vn 0.3089 0.0033 0.9511
vn 0.3091 0.0033 0.9510
vn 0.5877 -0.0000 0.8091
vn 0.5698 0.0767 0.8182
vn 0.5878 0.0033 0.8090
vn 0.7948 0.0767 0.6020
vn 0.8182 0.0767 0.5698
vn 0.8091 -0.0000 0.5877
vn 0.9510 0.0033 0.3091
vn 0.9511 0.0033 0.3089
vn 0.9969 0.0768 0.0199
vn -0.0768 -0.9969 0.0199
vn -0.0033 -0.9511 0.3089
vn -0.0767 -0.9419 0.3270
vn -0.0000 -0.9510 0.3091
vn -0.0033 -0.8091 0.5877
vn -0.0033 -0.8090 0.5878
vn -0.0767 -0.6020 0.7948
vn -0.0767 -0.5698 0.8182
vn -0.0000 -0.5877 0.8091
vn -0.0033 -0.3091 0.9510
vn -0.0033 -0.3089 0.9511
vn -0.0768 -0.0199 0.9969
vn 0.0768 0.9969 0.0199
vn 0.0033 0.9511 0.3089
vn 0.0767 0.9419 0.3270
vn -0.0000 0.9510 0.3091
vn 0.0033 0.8091 0.5877
vn 0.0033 0.8090 0.5878
vn 0.0767 0.6020 0.7948
vn 0.0767 0.5698 0.8182
vn -0.0000 0.5877 0.8091
vn 0.0033 0.3091 0.9510
vn 0.0033 0.3089 0.9511
vn 0.0768 0.0199 0.9969
vt 0.603750 0.771250
vt 0.396250 0.978750
vt 0.396250 0.771250
vt 0.603750 0.521250
vt 0.396250 0.728750
vt 0.396250 0.521250
vt 0.853750 0.521250
vt 0.646250 0.728750
vt 0.646250 0.521250
vt 0.603750 0.021250
vt 0.396250 0.228750
vt 0.396250 0.021250
vt 0.603750 0.271250
vt 0.396250 0.478750
vt 0.396250 0.271250
vt 0.146250 0.735318
vt 0.139682 0.728750
vt 0.146250 0.728750
vt 0.146250 0.741238
vt 0.139508 0.735530
vt 0.146250 0.750000
vt 0.139728 0.740951
vt 0.133762 0.728750
vt 0.135006 0.739994
vt 0.134039 0.735289
vt 0.139711 0.750000
vt 0.396250 0.985318
vt 0.389682 0.978750
vt 0.396250 1.000000
vt 0.389508 0.985530
vt 0.396250 0.008762
vt 0.389728 0.000000
vt 0.396250 0.000000
vt 0.375000 0.978750
vt 0.375000 0.989994
vt 0.375000 0.985289
vt 0.389711 0.009039
vt 0.375000 0.000000
vt 0.389682 0.021250
vt 0.396250 0.014682
vt 0.375000 0.021250
vt 0.389470 0.014508
vt 0.125000 0.735272
vt 0.125000 0.728750
vt 0.375000 0.010006
vt 0.125000 0.739994
vt 0.135006 0.750000
vt 0.610318 0.978750
vt 0.603750 0.985318
vt 0.603750 0.978750
vt 0.616238 0.978750
vt 0.610530 0.985492
vt 0.625000 0.978750
vt 0.615951 0.985272
vt 0.603750 1.000000
vt 0.614994 1.000000
vt 0.610289 1.000000
vt 0.625000 0.985289
vt 0.860318 0.728750
vt 0.853750 0.735318
vt 0.853750 0.728750
vt 0.875000 0.728750
vt 0.860530 0.735492
vt 0.616238 0.021250
vt 0.625000 0.014728
vt 0.625000 0.021250
vt 0.853750 0.750000
vt 0.875000 0.739994
vt 0.860289 0.750000
vt 0.615961 0.014711
vt 0.625000 0.010006
vt 0.603750 0.014682
vt 0.610318 0.021250
vt 0.603750 0.008762
vt 0.610492 0.014470
vt 0.603750 0.000000
vt 0.610272 0.009049
vt 0.614994 0.010006
vt 0.610289 0.000000
vt 0.614994 0.000000
vt 0.139682 0.521250
vt 0.146250 0.514682
vt 0.146250 0.521250
vt 0.133762 0.521250
vt 0.139470 0.514508
vt 0.125000 0.521250
vt 0.134049 0.514728
vt 0.146250 0.508762
vt 0.135006 0.510006
vt 0.139711 0.509039
vt 0.125000 0.514711
vt 0.396250 0.235318
vt 0.389682 0.228750
vt 0.396250 0.241238
vt 0.389508 0.235530
vt 0.396250 0.258762
vt 0.389728 0.240951
vt 0.375000 0.228750
vt 0.375000 0.239994
vt 0.375000 0.235289
vt 0.389711 0.259039
vt 0.389682 0.271250
vt 0.396250 0.264682
vt 0.375000 0.271250
vt 0.389470 0.264508
vt 0.139728 0.500000
vt 0.146250 0.500000
vt 0.375000 0.260006
vt 0.135006 0.500000
vt 0.125000 0.510006
vt 0.853750 0.514682
vt 0.860318 0.521250
vt 0.853750 0.500000
vt 0.860492 0.514470
vt 0.616238 0.271250
vt 0.625000 0.264728
vt 0.625000 0.271250
vt 0.875000 0.521250
vt 0.875000 0.510006
vt 0.875000 0.514711
vt 0.615961 0.264711
vt 0.625000 0.250000
vt 0.603750 0.264682
vt 0.610318 0.271250
vt 0.603750 0.258762
vt 0.610492 0.264470
vt 0.603750 0.241238
vt 0.610272 0.259049
vt 0.614994 0.260006
vt 0.610289 0.240961
vt 0.610318 0.228750
vt 0.603750 0.235318
vt 0.603750 0.228750
vt 0.616238 0.228750
vt 0.610530 0.235492
vt 0.625000 0.228750
vt 0.615951 0.235272
vt 0.614994 0.239994
vt 0.625000 0.235289
vt 0.625000 0.239994
vt 0.614994 0.242847
vt 0.360318 0.728750
vt 0.353750 0.735318
vt 0.353750 0.728750
vt 0.366238 0.728750
vt 0.360530 0.735492
vt 0.383762 0.728750
vt 0.365951 0.735272
vt 0.353750 0.741238
vt 0.364994 0.739994
vt 0.360289 0.740961
vt 0.384039 0.735289
vt 0.396250 0.735318
vt 0.389682 0.728750
vt 0.396250 0.741238
vt 0.389508 0.735530
vt 0.396250 0.758762
vt 0.389728 0.740951
vt 0.385006 0.739994
vt 0.389711 0.759039
vt 0.389682 0.771250
vt 0.396250 0.764682
vt 0.375000 0.771250
vt 0.389470 0.764508
vt 0.360272 0.750000
vt 0.353750 0.750000
vt 0.375000 0.760006
vt 0.364994 0.750000
vt 0.367847 0.739994
vt 0.646250 0.735318
vt 0.639682 0.728750
vt 0.646250 0.750000
vt 0.639508 0.735530
vt 0.616238 0.771250
vt 0.625000 0.764728
vt 0.625000 0.771250
vt 0.633762 0.728750
vt 0.635006 0.750000
vt 0.634039 0.735289
vt 0.615961 0.764711
vt 0.625000 0.760006
vt 0.603750 0.764682
vt 0.610318 0.771250
vt 0.603750 0.758762
vt 0.610492 0.764470
vt 0.603750 0.741238
vt 0.610272 0.759049
vt 0.614994 0.760006
vt 0.610289 0.740961
vt 0.610318 0.728750
vt 0.603750 0.735318
vt 0.603750 0.728750
vt 0.616238 0.728750
vt 0.610530 0.735492
vt 0.615951 0.735272
vt 0.614994 0.739994
vt 0.614994 0.757153
vt 0.353750 0.514682
vt 0.360318 0.521250
vt 0.353750 0.521250
vt 0.353750 0.508762
vt 0.360492 0.514470
vt 0.353750 0.500000
vt 0.360272 0.509049
vt 0.366238 0.521250
vt 0.364994 0.510006
vt 0.365961 0.514711
vt 0.360289 0.500000
vt 0.396250 0.485318
vt 0.389682 0.478750
vt 0.396250 0.491238
vt 0.389508 0.485530
vt 0.396250 0.508762
vt 0.389728 0.490951
vt 0.375000 0.478750
vt 0.375000 0.489994
vt 0.375000 0.485289
vt 0.389711 0.509039
vt 0.389682 0.521250
vt 0.396250 0.514682
vt 0.383762 0.521250
vt 0.389470 0.514508
vt 0.384049 0.514728
vt 0.385006 0.510006
vt 0.364994 0.500000
vt 0.367847 0.510006
vt 0.639682 0.521250
vt 0.646250 0.514682
vt 0.633762 0.521250
vt 0.639470 0.514508
vt 0.616238 0.521250
vt 0.634049 0.514728
vt 0.646250 0.500000
vt 0.635006 0.500000
vt 0.639711 0.500000
vt 0.615961 0.514711
vt 0.603750 0.514682
vt 0.610318 0.521250
vt 0.603750 0.508762
vt 0.610492 0.514470
vt 0.603750 0.491238
vt 0.610272 0.509049
vt 0.614994 0.510006
vt 0.610289 0.490961
vt 0.610318 0.478750
vt 0.603750 0.485318
vt 0.603750 0.478750
vt 0.616238 0.478750
vt 0.610530 0.485492
vt 0.625000 0.478750
vt 0.615951 0.485272
vt 0.614994 0.489994
vt 0.625000 0.485289
vt 0.625000 0.489994
vt 0.614994 0.492847
vt 0.389728 1.000000
vt 0.375000 0.014728
vt 0.625000 1.000000
vt 0.875000 0.735272
vt 0.375000 0.264728
vt 0.860272 0.500000
vt 0.375000 0.764728
vt 0.639728 0.750000
s 0
f 137/1/1 2/2/1 111/3/1
f 191/4/2 110/5/2 165/6/2
f 82/7/3 136/8/3 190/9/3
f 30/10/4 56/11/4 3/12/4
f 83/13/5 164/14/5 57/15/5
f 4/16/6 6/17/7 1/18/8
f 5/19/9 7/20/10 4/16/11
f 17/21/12 8/22/13 5/19/14
f 7/20/15 9/23/16 6/17/17
f 7/20/18 11/24/19 10/25/20
f 18/26/21 11/24/22 8/22/23
f 12/27/24 14/28/25 2/2/26
f 13/29/27 15/30/28 12/27/29
f 25/31/30 16/32/31 13/33/32
f 15/30/33 17/34/34 14/28/35
f 15/30/36 19/35/37 18/36/38
f 26/37/39 19/38/40 16/32/41
f 20/39/42 22/40/43 3/12/44
f 21/41/45 23/42/46 20/39/47
f 9/23/48 24/43/49 21/44/50
f 23/42/51 25/31/52 22/40/53
f 23/42/54 27/45/55 26/37/56
f 10/25/57 27/46/58 24/43/59
f 11/24/60 19/47/61 27/46/62
f 31/48/63 33/49/64 28/50/65
f 32/51/66 34/52/67 31/48/68
f 44/53/69 35/54/70 32/51/71
f 34/52/72 36/55/73 33/49/74
f 34/52/75 38/56/76 37/57/77
f 45/58/78 38/56/79 35/54/80
f 39/59/81 41/60/82 29/61/83
f 40/62/84 42/63/85 39/59/86
f 52/64/87 43/65/88 40/66/89
f 42/63/90 44/67/91 41/60/92
f 42/63/93 46/68/94 45/69/95
f 53/70/96 46/71/97 43/65/98
f 47/72/99 49/73/100 30/10/101
f 48/74/102 50/75/103 47/72/104
f 36/76/105 51/77/106 48/74/107
f 50/75/108 52/64/109 49/73/110
f 50/75/111 54/78/112 53/70/113
f 37/79/114 54/78/115 51/77/116
f 38/80/117 46/71/118 54/78/119
f 58/81/120 60/82/121 55/83/122
f 59/84/123 61/85/124 58/81/125
f 71/86/126 62/87/127 59/84/128
f 61/85/129 63/88/130 60/82/131
f 61/85/132 65/89/133 64/90/134
f 72/91/135 65/89/136 62/87/137
f 66/92/138 68/93/139 56/11/140
f 67/94/141 69/95/142 66/92/143
f 79/96/144 70/97/145 67/94/146
f 69/95/147 71/98/148 68/93/149
f 69/95/150 73/99/151 72/100/152
f 80/101/153 73/99/154 70/97/155
f 74/102/156 76/103/157 57/15/158
f 75/104/159 77/105/160 74/102/161
f 63/88/162 78/106/163 75/107/164
f 77/105/165 79/96/166 76/103/167
f 77/105/168 81/108/169 80/101/170
f 64/90/171 81/109/172 78/106/173
f 65/89/174 73/110/175 81/109/176
f 85/111/177 87/112/178 82/7/179
f 86/113/180 88/114/181 85/111/182
f 98/115/183 89/116/184 86/117/185
f 88/114/186 90/118/187 87/112/188
f 88/114/189 92/119/190 91/120/191
f 99/121/192 92/122/193 89/116/194
f 93/123/195 95/124/196 83/13/197
f 94/125/198 96/126/199 93/123/200
f 106/127/201 97/128/202 94/125/203
f 96/126/204 98/115/205 95/124/206
f 96/126/207 100/129/208 99/121/209
f 107/130/210 100/129/211 97/128/212
f 101/131/213 103/132/214 84/133/215
f 102/134/216 104/135/217 101/131/218
f 90/136/219 105/137/220 102/134/221
f 104/135/222 106/127/223 103/132/224
f 104/135/225 108/138/226 107/130/227
f 91/139/228 108/138/229 105/137/230
f 92/140/231 100/141/232 108/138/233
f 112/142/234 114/143/235 109/144/236
f 113/145/237 115/146/238 112/142/239
f 125/147/240 116/148/241 113/145/242
f 115/146/243 117/149/244 114/143/245
f 115/146/246 119/150/247 118/151/248
f 126/152/249 119/150/250 116/148/251
f 120/153/252 122/154/253 110/5/254
f 121/155/255 123/156/256 120/153/257
f 133/157/258 124/158/259 121/155/260
f 123/156/261 125/147/262 122/154/263
f 123/156/264 127/159/265 126/152/266
f 134/160/267 127/159/268 124/158/269
f 128/161/270 130/162/271 111/3/272
f 129/163/273 131/164/274 128/161/275
f 117/149/276 132/165/277 129/166/278
f 131/164/279 133/157/280 130/162/281
f 131/164/282 135/167/283 134/160/284
f 118/151/285 135/168/286 132/165/287
f 119/150/288 127/169/289 135/168/290
f 139/170/291 141/171/292 136/8/293
f 140/172/294 142/173/295 139/170/296
f 152/174/297 143/175/298 140/176/299
f 142/173/300 144/177/301 141/171/302
f 142/173/303 146/178/304 145/179/305
f 153/180/306 146/181/307 143/175/308
f 147/182/309 149/183/310 137/1/311
f 148/184/312 150/185/313 147/182/314
f 160/186/315 151/187/316 148/184/317
f 150/185/318 152/174/319 149/183/320
f 150/185/321 154/188/322 153/180/323
f 161/189/324 154/188/325 151/187/326
f 155/190/327 157/191/328 138/192/329
f 156/193/330 158/194/331 155/190/332
f 144/177/333 159/195/334 156/193/335
f 158/194/336 160/186/337 157/191/338
f 158/194/339 162/196/340 161/189/341
f 145/179/342 162/196/343 159/195/344
f 146/181/345 154/188/346 162/197/347
f 166/198/348 168/199/349 163/200/350
f 167/201/351 169/202/352 166/198/353
f 179/203/354 170/204/355 167/201/356
f 169/202/357 171/205/358 168/199/359
f 169/202/360 173/206/361 172/207/362
f 180/208/363 173/206/364 170/204/365
f 174/209/366 176/210/367 164/14/368
f 175/211/369 177/212/370 174/209/371
f 187/213/372 178/214/373 175/211/374
f 177/212/375 179/215/376 176/210/377
f 177/212/378 181/216/379 180/217/380
f 188/218/381 181/216/382 178/214/383
f 182/219/384 184/220/385 165/6/386
f 183/221/387 185/222/388 182/219/389
f 171/205/390 186/223/391 183/221/392
f 185/222/393 187/213/394 184/220/395
f 185/222/396 189/224/397 188/218/398
f 172/207/399 189/224/400 186/223/401
f 173/206/402 181/225/403 189/226/404
f 193/227/405 195/228/406 190/9/407
f 194/229/408 196/230/409 193/227/410
f 206/231/411 197/232/412 194/229/413
f 196/230/414 198/233/415 195/228/416
f 196/230/417 200/234/418 199/235/419
f 207/236/420 200/234/421 197/232/422
f 201/237/423 203/238/424 191/4/425
f 202/239/426 204/240/427 201/237/428
f 214/241/429 205/242/430 202/239/431
f 204/240/432 206/231/433 203/238/434
f 204/240/435 208/243/436 207/236/437
f 215/244/438 208/243/439 205/242/440
f 209/245/441 211/246/442 192/247/443
f 210/248/444 212/249/445 209/245/446
f 198/250/447 213/251/448 210/248/449
f 212/249/450 214/241/451 211/246/452
f 212/249/453 216/252/454 215/244/455
f 199/253/456 216/252/457 213/251/458
f 200/254/459 208/255/460 216/252/461
f 55/83/462 6/17/463 58/81/464
f 58/81/465 9/23/466 59/84/467
f 9/23/468 71/86/469 59/84/128
f 71/98/470 20/39/471 68/93/472
f 20/39/473 56/11/474 68/93/475
f 2/2/476 33/49/477 12/27/478
f 33/49/479 13/29/480 12/27/481
f 36/76/482 25/31/483 13/33/32
f 25/31/484 47/72/485 22/40/486
f 47/72/487 3/12/488 22/40/489
f 29/61/490 87/112/491 39/59/492
f 39/59/493 90/118/494 40/62/495
f 90/136/496 52/64/497 40/66/89
f 52/64/498 101/131/499 49/73/500
f 101/131/501 30/10/502 49/73/503
f 83/13/504 76/103/505 93/123/506
f 76/103/507 94/125/508 93/123/509
f 79/96/510 106/127/511 94/125/203
f 106/127/512 66/92/513 103/132/514
f 66/92/515 84/133/516 103/132/517
f 163/200/518 60/82/519 166/198/520
f 166/198/521 63/88/522 167/201/523
f 63/88/524 179/203/525 167/201/356
f 179/215/526 74/102/527 176/210/528
f 74/102/529 164/14/530 176/210/531
f 82/7/532 195/228/533 85/111/534
f 85/111/535 198/233/536 86/113/537
f 198/250/538 98/115/539 86/117/185
f 98/115/540 209/245/541 95/124/542
f 209/245/543 83/13/544 95/124/545
f 191/4/546 184/220/547 201/237/548
f 184/220/549 202/239/550 201/237/551
f 187/213/552 214/241/553 202/239/431
f 214/241/554 174/209/555 211/246/556
f 174/209/557 192/247/558 211/246/559
f 109/144/560 168/199/561 112/142/562
f 112/142/563 171/205/564 113/145/565
f 171/205/566 125/147/567 113/145/242
f 125/147/568 182/219/569 122/154/570
f 182/219/571 110/5/572 122/154/573
f 190/9/574 141/171/575 193/227/576
f 193/227/577 144/177/578 194/229/579
f 144/177/580 206/231/581 194/229/413
f 206/231/582 155/190/583 203/238/584
f 155/190/585 191/4/586 203/238/587
f 137/1/588 130/162/589 147/182/590
f 130/162/591 148/184/592 147/182/593
f 133/157/594 160/186/595 148/184/317
f 160/186/596 120/153/597 157/191/598
f 120/153/599 138/192/600 157/191/601
f 1/18/602 114/143/603 4/16/604
f 4/16/605 117/149/606 5/19/607
f 117/149/608 17/21/609 5/19/14
f 17/34/610 128/161/611 14/28/612
f 128/161/613 2/2/614 14/28/615
f 136/8/616 41/60/617 139/170/618
f 139/170/619 44/67/620 140/172/621
f 44/53/622 152/174/623 140/176/299
f 152/174/624 31/48/625 149/183/626
f 31/48/627 137/1/628 149/183/629
f 163/200/630 1/18/630 55/83/630
f 137/1/1 28/50/1 2/2/1
f 191/4/2 138/192/2 110/5/2
f 82/7/3 29/61/3 136/8/3
f 30/10/4 84/133/4 56/11/4
f 83/13/5 192/247/5 164/14/5
f 4/16/631 7/20/632 6/17/633
f 5/19/634 8/22/635 7/20/636
f 17/21/637 18/26/638 8/22/639
f 7/20/640 10/25/641 9/23/642
f 7/20/643 8/22/644 11/24/645
f 18/26/646 19/47/647 11/24/648
f 12/27/649 15/30/650 14/28/651
f 13/29/652 16/256/653 15/30/654
f 25/31/655 26/37/656 16/32/657
f 15/30/658 18/36/659 17/34/660
f 15/30/661 16/256/662 19/35/663
f 26/37/664 27/45/665 19/38/666
f 20/39/667 23/42/668 22/40/669
f 21/41/670 24/257/671 23/42/672
f 9/23/673 10/25/674 24/43/675
f 23/42/676 26/37/677 25/31/678
f 23/42/679 24/257/680 27/45/681
f 10/25/682 11/24/683 27/46/684
f 31/48/685 34/52/686 33/49/687
f 32/51/688 35/54/689 34/52/690
f 44/53/691 45/58/692 35/54/693
f 34/52/694 37/57/695 36/55/696
f 34/52/697 35/54/698 38/56/699
f 45/58/700 46/258/701 38/56/702
f 39/59/703 42/63/704 41/60/705
f 40/62/706 43/259/707 42/63/708
f 52/64/709 53/70/710 43/65/711
f 42/63/712 45/69/713 44/67/714
f 42/63/715 43/259/716 46/68/717
f 53/70/718 54/78/719 46/71/720
f 47/72/721 50/75/722 49/73/723
f 48/74/724 51/77/725 50/75/726
f 36/76/727 37/79/728 51/77/729
f 50/75/730 53/70/731 52/64/732
f 50/75/733 51/77/734 54/78/735
f 37/79/736 38/80/737 54/78/738
f 58/81/739 61/85/740 60/82/741
f 59/84/742 62/87/743 61/85/744
f 71/86/745 72/91/746 62/87/747
f 61/85/748 64/90/749 63/88/750
f 61/85/751 62/87/752 65/89/753
f 72/91/754 73/110/755 65/89/756
f 66/92/757 69/95/758 68/93/759
f 67/94/760 70/97/761 69/95/762
f 79/96/763 80/101/764 70/97/765
f 69/95/766 72/100/767 71/98/768
f 69/95/769 70/97/770 73/99/771
f 80/101/772 81/108/773 73/99/774
f 74/102/775 77/105/776 76/103/777
f 75/104/778 78/260/779 77/105/780
f 63/88/781 64/90/782 78/106/783
f 77/105/784 80/101/785 79/96/786
f 77/105/787 78/260/788 81/108/789
f 64/90/790 65/89/791 81/109/792
f 85/111/793 88/114/794 87/112/795
f 86/113/796 89/261/797 88/114/798
f 98/115/799 99/121/800 89/116/801
f 88/114/802 91/120/803 90/118/804
f 88/114/805 89/261/806 92/119/807
f 99/121/808 100/129/809 92/122/810
f 93/123/811 96/126/812 95/124/813
f 94/125/814 97/128/815 96/126/816
f 106/127/817 107/130/818 97/128/819
f 96/126/820 99/121/821 98/115/822
f 96/126/823 97/128/824 100/129/825
f 107/130/826 108/138/827 100/129/828
f 101/131/829 104/135/830 103/132/831
f 102/134/832 105/137/833 104/135/834
f 90/136/835 91/139/836 105/137/837
f 104/135/838 107/130/839 106/127/840
f 104/135/841 105/137/842 108/138/843
f 91/139/844 92/140/845 108/138/846
f 112/142/847 115/146/848 114/143/849
f 113/145/850 116/148/851 115/146/852
f 125/147/853 126/152/854 116/148/855
f 115/146/856 118/151/857 117/149/858
f 115/146/859 116/148/860 119/150/861
f 126/152/862 127/159/863 119/150/864
f 120/153/865 123/156/866 122/154/867
f 121/155/868 124/158/869 123/156/870
f 133/157/871 134/160/872 124/158/873
f 123/156/874 126/152/875 125/147/876
f 123/156/877 124/158/878 127/159/879
f 134/160/880 135/167/881 127/159/882
f 128/161/883 131/164/884 130/162/885
f 129/163/886 132/262/887 131/164/888
f 117/149/889 118/151/890 132/165/891
f 131/164/892 134/160/893 133/157/894
f 131/164/895 132/262/896 135/167/897
f 118/151/898 119/150/899 135/168/900
f 139/170/901 142/173/902 141/171/903
f 140/172/904 143/263/905 142/173/906
f 152/174/907 153/180/908 143/175/909
f 142/173/910 145/179/911 144/177/912
f 142/173/913 143/263/914 146/178/915
f 153/180/916 154/188/917 146/181/918
f 147/182/919 150/185/920 149/183/921
f 148/184/922 151/187/923 150/185/924
f 160/186/925 161/189/926 151/187/927
f 150/185/928 153/180/929 152/174/930
f 150/185/931 151/187/932 154/188/933
f 161/189/934 162/196/935 154/188/936
f 155/190/937 158/194/938 157/191/939
f 156/193/940 159/195/941 158/194/942
f 144/177/943 145/179/944 159/195/945
f 158/194/946 161/189/947 160/186/948
f 158/194/949 159/195/950 162/196/951
f 145/179/952 146/178/953 162/196/954
f 166/198/955 169/202/956 168/199/957
f 167/201/958 170/204/959 169/202/960
f 179/203/961 180/208/962 170/204/963
f 169/202/964 172/207/965 171/205/966
f 169/202/967 170/204/968 173/206/969
f 180/208/970 181/225/971 173/206/972
f 174/209/973 177/212/974 176/210/975
f 175/211/976 178/214/977 177/212/978
f 187/213/979 188/218/980 178/214/981
f 177/212/982 180/217/983 179/215/984
f 177/212/985 178/214/986 181/216/987
f 188/218/988 189/224/989 181/216/990
f 182/219/991 185/222/992 184/220/993
f 183/221/994 186/223/995 185/222/996
f 171/205/997 172/207/998 186/223/999
f 185/222/1000 188/218/1001 187/213/1002
f 185/222/1003 186/223/1004 189/224/1005
f 172/207/1006 173/206/1007 189/224/1008
f 193/227/1009 196/230/1010 195/228/1011
f 194/229/1012 197/232/1013 196/230/1014
f 206/231/1015 207/236/1016 197/232/1017
f 196/230/1018 199/235/1019 198/233/1020
f 196/230/1021 197/232/1022 200/234/1023
f 207/236/1024 208/243/1025 200/234/1026
f 201/237/1027 204/240/1028 203/238/1029
f 202/239/1030 205/242/1031 204/240/1032
f 214/241/1033 215/244/1034 205/242/1035
f 204/240/1036 207/236/1037 206/231/1038
f 204/240/1039 205/242/1040 208/243/1041
f 215/244/1042 216/252/1043 208/243/1044
f 209/245/1045 212/249/1046 211/246/1047
f 210/248/1048 213/251/1049 212/249/1050
f 198/250/1051 199/253/1052 213/251/1053
f 212/249/1054 215/244/1055 214/241/1056
f 212/249/1057 213/251/1058 216/252/1059
f 199/253/1060 200/254/1061 216/252/1062
f 55/83/1063 1/18/630 6/17/1064
f 58/81/1065 6/17/1066 9/23/1067
f 9/23/1068 21/44/50 71/86/1069
f 71/98/1070 21/41/1071 20/39/1072
f 20/39/1073 3/12/4 56/11/1074
f 2/2/1075 28/50/1 33/49/1076
f 33/49/1077 36/55/1078 13/29/1079
f 36/76/1080 48/74/107 25/31/1081
f 25/31/1082 48/74/1083 47/72/1084
f 47/72/1085 30/10/4 3/12/1086
f 29/61/1087 82/7/3 87/112/1088
f 39/59/1089 87/112/1090 90/118/1091
f 90/136/1092 102/134/221 52/64/1093
f 52/64/1094 102/134/1095 101/131/1096
f 101/131/1097 84/133/4 30/10/1098
f 83/13/1099 57/15/5 76/103/1100
f 76/103/1101 79/96/1102 94/125/1103
f 79/96/1104 67/94/146 106/127/1105
f 106/127/1106 67/94/1107 66/92/1108
f 66/92/1109 56/11/4 84/133/1110
f 163/200/1111 55/83/630 60/82/1112
f 166/198/1113 60/82/1114 63/88/1115
f 63/88/1116 75/107/164 179/203/1117
f 179/215/1118 75/104/1119 74/102/1120
f 74/102/1121 57/15/5 164/14/1122
f 82/7/1123 190/9/3 195/228/1124
f 85/111/1125 195/228/1126 198/233/1127
f 198/250/1128 210/248/449 98/115/1129
f 98/115/1130 210/248/1131 209/245/1132
f 209/245/1133 192/247/5 83/13/1134
f 191/4/1135 165/6/2 184/220/1136
f 184/220/1137 187/213/1138 202/239/1139
f 187/213/1140 175/211/374 214/241/1141
f 214/241/1142 175/211/1143 174/209/1144
f 174/209/1145 164/14/5 192/247/1146
f 109/144/1147 163/200/630 168/199/1148
f 112/142/1149 168/199/1150 171/205/1151
f 171/205/1152 183/221/392 125/147/1153
f 125/147/1154 183/221/1155 182/219/1156
f 182/219/1157 165/6/2 110/5/1158
f 190/9/1159 136/8/3 141/171/1160
f 193/227/1161 141/171/1162 144/177/1163
f 144/177/1164 156/193/335 206/231/1165
f 206/231/1166 156/193/1167 155/190/1168
f 155/190/1169 138/192/2 191/4/1170
f 137/1/1171 111/3/1 130/162/1172
f 130/162/1173 133/157/1174 148/184/1175
f 133/157/1176 121/155/260 160/186/1177
f 160/186/1178 121/155/1179 120/153/1180
f 120/153/1181 110/5/2 138/192/1182
f 1/18/1183 109/144/630 114/143/1184
f 4/16/1185 114/143/1186 117/149/1187
f 117/149/1188 129/166/278 17/21/1189
f 17/34/1190 129/163/1191 128/161/1192
f 128/161/1193 111/3/1 2/2/1194
f 136/8/1195 29/61/3 41/60/1196
f 139/170/1197 41/60/1198 44/67/1199
f 44/53/1200 32/51/71 152/174/1201
f 152/174/1202 32/51/1203 31/48/1204
f 31/48/1205 28/50/1 137/1/1206
f 163/200/630 109/144/630 1/18/630
